<svg width="2926" height="554" viewBox="0 0 2926 554" fill="none" xmlns="http://www.w3.org/2000/svg">
<path d="M261.575 262H141.325V258.1L153.35 235.35V164.5C153.35 149.55 152.375 135.9 143.6 135.9C135.15 135.9 122.15 146.625 116.625 168.4V235.35L128.325 258.1V262H8.4V258.1L34.4 235.35V122.575L8.4 100.15V96.25L116.625 88.125L115.325 131.025C128.325 102.75 154.975 85.85 185.2 85.85C214.125 85.85 235.25 110.225 235.25 142.725V235.35L261.575 258.1V262ZM450.664 152.475C450.664 162.55 448.714 171.325 443.514 180.1H349.264C348.939 183.675 348.614 186.925 348.614 189.85C348.614 219.425 365.839 224.95 387.939 224.95C408.739 224.95 430.514 214.875 430.514 197C430.514 196.35 430.514 195.7 430.514 195.05H445.139C447.089 200.9 448.064 206.75 448.064 211.95C448.064 242.175 415.889 265.575 365.514 265.575C303.764 265.575 262.814 231.45 262.814 175.875C262.814 119.975 304.739 85.85 363.239 85.85C420.114 85.85 450.664 116.075 450.664 152.475ZM395.089 147.925C395.089 132.975 387.289 125.175 374.614 125.175C361.289 125.175 351.539 132.325 351.539 157.35H394.114C394.764 154.1 395.089 150.85 395.089 147.925ZM786.458 93.325L762.408 116.075L713.658 240.225L735.108 258.1V262H618.108V258.1L639.233 240.225L614.208 168.075L586.258 240.225L608.033 258.1V262H489.083V258.1L509.883 240.225L466.008 116.075L441.633 93.325V89.425H565.783V93.325L547.583 116.075L567.408 191.475L593.083 116.075L574.233 93.325V89.425H690.583V93.325L672.708 116.075L694.483 191.475L718.208 116.075L700.008 93.325V89.425H786.458V93.325ZM1043.87 210.65C1043.87 244.775 1008.77 265.575 965.868 265.575C936.618 265.575 910.293 256.475 894.368 239.25L866.743 265.575H862.843V184.325H866.743C894.043 217.8 925.243 232.425 946.368 232.425C960.668 232.425 967.493 226.9 967.493 219.425C967.493 198.95 866.743 207.075 866.743 140.775C866.743 111.2 901.518 85.85 944.743 85.85C970.093 85.85 992.518 96.575 1003.57 110.55L1025.99 85.85H1029.89V157.675H1025.99C1004.22 131.35 978.868 116.725 957.418 116.725C943.118 116.725 936.293 122.25 936.293 129.725C936.293 150.2 1043.87 144.35 1043.87 210.65ZM1257.8 175.875C1257.8 231.45 1212.63 265.575 1157.05 265.575C1101.48 265.575 1056.3 231.45 1056.3 175.875C1056.3 119.975 1101.48 85.85 1157.05 85.85C1212.63 85.85 1257.8 119.975 1257.8 175.875ZM1171.03 203.5V148.25C1171.03 136.875 1167.13 128.425 1157.05 128.425C1146.98 128.425 1142.75 136.875 1142.75 148.25V203.5C1142.75 214.55 1146.98 223 1157.05 223C1167.13 223 1171.03 214.55 1171.03 203.5ZM1514.01 262H1393.76V258.1L1405.79 235.35V164.5C1405.79 149.55 1404.81 135.9 1396.04 135.9C1387.59 135.9 1374.59 146.625 1369.06 168.4V235.35L1380.76 258.1V262H1260.84V258.1L1286.84 235.35V122.575L1260.84 100.15V96.25L1369.06 88.125L1367.76 131.025C1380.76 102.75 1407.41 85.85 1437.64 85.85C1466.56 85.85 1487.69 110.225 1487.69 142.725V235.35L1514.01 258.1V262ZM1723.25 83.25C1723.25 94.3 1716.75 107.625 1701.8 107.625C1696.6 107.625 1692.05 105.675 1687.5 102.75C1691.08 100.15 1692.7 96.25 1692.7 92.675C1692.7 87.15 1688.8 82.275 1681.98 82.275C1676.13 82.275 1672.88 86.825 1672.88 92.025C1672.88 99.5 1675.15 104.375 1681 111.2C1688.48 119.975 1692.7 130.7 1692.7 142.725C1692.7 175.225 1667.03 199.275 1613.08 199.275C1598.45 199.275 1584.8 197.325 1574.73 193.75C1571.48 196.025 1569.85 198.95 1569.85 202.525C1569.85 207.725 1573.75 212.275 1581.88 212.275H1653.05C1696.6 212.275 1716.75 230.15 1716.75 263.95C1716.75 303.925 1688.15 336.1 1595.85 336.1C1539.3 336.1 1514.28 321.475 1514.28 299.7C1514.28 287.025 1524.68 275.65 1541.25 271.75C1527.6 265.575 1516.88 251.6 1516.88 235.025C1516.88 211.625 1532.15 193.1 1553.28 183.025C1540.28 172.95 1533.78 157.35 1533.78 142.725C1533.78 110.225 1559.45 85.85 1613.08 85.85C1629.98 85.85 1644.93 89.1 1656.95 94.3C1655.65 91.05 1654.35 87.15 1654.35 81.625C1654.35 69.925 1667.03 56.275 1687.83 56.275C1709.93 56.275 1723.25 69.275 1723.25 83.25ZM1623.8 153.45V132.325C1623.8 124.85 1620.88 119.65 1613.08 119.65C1605.93 119.65 1602.68 124.85 1602.68 132.325V153.45C1602.68 160.6 1605.93 165.8 1613.08 165.8C1620.88 165.8 1623.8 160.6 1623.8 153.45ZM1657.93 282.475C1657.93 278.575 1655.98 275.65 1649.8 275.65C1649.8 275.65 1587.08 275.65 1568.55 275.65C1564.65 276.625 1562.7 278.9 1562.7 283.775C1562.7 290.925 1577.33 297.1 1609.83 297.1C1652.08 297.1 1657.93 288.325 1657.93 282.475ZM1909.08 210.65C1909.08 244.775 1873.98 265.575 1831.08 265.575C1801.83 265.575 1775.51 256.475 1759.58 239.25L1731.96 265.575H1728.06V184.325H1731.96C1759.26 217.8 1790.46 232.425 1811.58 232.425C1825.88 232.425 1832.71 226.9 1832.71 219.425C1832.71 198.95 1731.96 207.075 1731.96 140.775C1731.96 111.2 1766.73 85.85 1809.96 85.85C1835.31 85.85 1857.73 96.575 1868.78 110.55L1891.21 85.85H1895.11V157.675H1891.21C1869.43 131.35 1844.08 116.725 1822.63 116.725C1808.33 116.725 1801.51 122.25 1801.51 129.725C1801.51 150.2 1909.08 144.35 1909.08 210.65Z" fill="white"/>
<path d="M205.35 332.3C205.35 350.5 191.375 362.85 173.825 362.85C157.575 362.85 146.525 357 139.7 348.55L140.35 344C144.25 344 145.225 341.075 145.225 337.5C145.225 331.65 141.975 326.45 133.85 326.45C127.35 326.45 122.8 330.675 122.8 338.475V374.55H174.475L157.575 408.675H122.8V512.675L148.8 535.1V539H14.9V535.1L40.9 512.675V408.675H0.275L21.725 374.55H40.9C40.9 326.45 70.475 287.125 129.3 287.125C182.925 287.125 205.35 309.875 205.35 332.3ZM365.539 452.875C365.539 508.45 320.364 542.575 264.789 542.575C209.214 542.575 164.039 508.45 164.039 452.875C164.039 396.975 209.214 362.85 264.789 362.85C320.364 362.85 365.539 396.975 365.539 452.875ZM278.764 480.5V425.25C278.764 413.875 274.864 405.425 264.789 405.425C254.714 405.425 250.489 413.875 250.489 425.25V480.5C250.489 491.55 254.714 500 264.789 500C274.864 500 278.764 491.55 278.764 480.5ZM567.476 408.025C567.476 429.8 551.551 447.35 531.401 447.35C512.876 447.35 501.501 442.8 495.001 435.325L495.326 430.775C498.901 431.1 501.176 426.875 501.176 422.975C501.176 416.8 496.626 411.6 487.201 411.6C478.101 411.6 473.551 416.15 473.551 424.925V512.675L499.551 535.1V539H365.651V535.1L391.651 512.675V399.9L365.651 377.15V373.25L470.301 365.45L469.001 400.55C476.151 381.7 498.576 362.85 521.976 362.85C551.551 362.85 567.476 380.725 567.476 408.025ZM860.423 507.15C860.423 532.5 840.598 542.575 815.573 542.575C793.148 542.575 769.098 533.8 762.598 516.25C754.798 531.525 729.448 542.575 707.673 542.575C673.548 542.575 648.198 526.975 648.198 497.4C648.198 461.325 693.048 449.95 754.798 448.325V421.35C754.798 412.575 749.923 408.025 741.148 408.025C731.723 408.025 727.173 411.925 727.173 418.1C727.173 422 729.773 425.9 732.698 424.925L733.348 429.475C726.523 436.95 716.773 441.5 696.948 441.5C677.448 441.5 660.223 427.525 660.223 409C660.223 383.65 693.048 362.85 746.348 362.85C802.573 362.85 833.448 389.5 833.448 419.725V495.775C833.448 499.35 836.698 503.25 840.598 503.25C846.448 503.25 850.348 500.325 850.348 489.925L854.573 489.275C858.148 493.825 860.423 500.325 860.423 507.15ZM754.798 488.3V463.925C736.923 465.875 728.473 477.9 728.473 488.625C728.473 496.425 733.673 500.975 741.473 500.975C749.273 500.975 754.798 495.45 754.798 488.3ZM1179.72 539H1059.47V535.1L1071.49 512.35V441.5C1071.49 426.55 1070.52 412.9 1061.74 412.9C1053.29 412.9 1040.29 423.625 1034.77 445.4V512.35L1046.47 535.1V539H926.54V535.1L952.54 512.35V399.575L926.54 377.15V373.25L1034.77 365.125L1033.47 408.025C1046.47 379.75 1073.12 362.85 1103.34 362.85C1132.27 362.85 1153.39 387.225 1153.39 419.725V512.35L1179.72 535.1V539ZM1365.88 429.475C1365.88 439.55 1363.93 448.325 1358.73 457.1H1264.48C1264.15 460.675 1263.83 463.925 1263.83 466.85C1263.83 496.425 1281.05 501.95 1303.15 501.95C1323.95 501.95 1345.73 491.875 1345.73 474C1345.73 473.35 1345.73 472.7 1345.73 472.05H1360.35C1362.3 477.9 1363.28 483.75 1363.28 488.95C1363.28 519.175 1331.1 542.575 1280.73 542.575C1218.98 542.575 1178.03 508.45 1178.03 452.875C1178.03 396.975 1219.95 362.85 1278.45 362.85C1335.33 362.85 1365.88 393.075 1365.88 429.475ZM1310.3 424.925C1310.3 409.975 1302.5 402.175 1289.83 402.175C1276.5 402.175 1266.75 409.325 1266.75 434.35H1309.33C1309.98 431.1 1310.3 427.85 1310.3 424.925ZM1698.75 370.325L1674.7 393.075L1625.95 517.225L1647.4 535.1V539H1530.4V535.1L1551.52 517.225L1526.5 445.075L1498.55 517.225L1520.32 535.1V539H1401.37V535.1L1422.17 517.225L1378.3 393.075L1353.92 370.325V366.425H1478.07V370.325L1459.87 393.075L1479.7 468.475L1505.37 393.075L1486.52 370.325V366.425H1602.87V370.325L1585 393.075L1606.77 468.475L1630.5 393.075L1612.3 370.325V366.425H1698.75V370.325ZM1975.66 507.15C1975.66 532.5 1955.83 542.575 1930.81 542.575C1908.38 542.575 1884.33 533.8 1877.83 516.25C1870.03 531.525 1844.68 542.575 1822.91 542.575C1788.78 542.575 1763.43 526.975 1763.43 497.4C1763.43 461.325 1808.28 449.95 1870.03 448.325V421.35C1870.03 412.575 1865.16 408.025 1856.38 408.025C1846.96 408.025 1842.41 411.925 1842.41 418.1C1842.41 422 1845.01 425.9 1847.93 424.925L1848.58 429.475C1841.76 436.95 1832.01 441.5 1812.18 441.5C1792.68 441.5 1775.46 427.525 1775.46 409C1775.46 383.65 1808.28 362.85 1861.58 362.85C1917.81 362.85 1948.68 389.5 1948.68 419.725V495.775C1948.68 499.35 1951.93 503.25 1955.83 503.25C1961.68 503.25 1965.58 500.325 1965.58 489.925L1969.81 489.275C1973.38 493.825 1975.66 500.325 1975.66 507.15ZM1870.03 488.3V463.925C1852.16 465.875 1843.71 477.9 1843.71 488.625C1843.71 496.425 1848.91 500.975 1856.71 500.975C1864.51 500.975 1870.03 495.45 1870.03 488.3ZM2099.55 539H1965.65V535.1L1991.65 512.675V326.125L1965.65 303.7V299.475L2073.55 293.95V512.675L2099.55 535.1V539ZM2316.21 452.875C2316.21 508.45 2285.01 542.575 2231.06 542.575C2199.21 542.575 2169.31 533.15 2155.33 517.875L2115.68 548.1L2111.13 546.8C2114.71 532.825 2115.68 510.075 2115.68 482.775V326.125L2085.46 303.7V299.475L2197.58 293.95V386.575C2209.93 371.3 2228.46 362.85 2246.66 362.85C2288.58 362.85 2316.21 396.975 2316.21 452.875ZM2229.76 478.875V431.1C2229.76 418.425 2225.21 409 2213.83 409C2202.13 409 2197.58 418.425 2197.58 431.1V478.875C2197.58 491.55 2202.13 501.3 2213.83 501.3C2225.21 501.3 2229.76 491.55 2229.76 478.875ZM2565.7 539H2457.8V501.95C2446.75 522.75 2424 542.575 2393.77 542.575C2364.85 542.575 2343.4 518.2 2343.4 485.7V397.625L2317.4 374.875V370.975L2425.62 365.45V463.925C2425.62 479.2 2426.27 492.525 2435.37 492.525C2443.5 492.525 2452.27 481.8 2457.8 460.025V397.625L2436.35 374.875V370.975L2539.7 365.45V512.675L2565.7 535.1V539ZM2925.35 539H2802.5V535.1L2820.7 512.675V441.5C2820.7 426.55 2815.83 412.9 2806.73 412.9C2792.75 412.9 2785.93 420.7 2779.75 445.4V512.675L2789.18 535.1V539H2691.68V535.1L2701.1 512.675V441.5C2701.1 426.55 2695.9 412.9 2686.8 412.9C2673.48 412.9 2666 420.7 2659.83 445.4V512.675L2678.68 535.1V539H2555.18V535.1L2581.18 512.675V399.9L2555.18 377.15V373.25L2659.83 365.45L2658.53 403.475C2669.58 382.675 2696.55 362.85 2726.78 362.85C2751.15 362.85 2773.58 378.775 2778.45 403.8C2789.5 382.675 2819.73 362.85 2850.93 362.85C2879.85 362.85 2899.35 387.225 2899.35 419.725V512.675L2925.35 535.1V539Z" fill="white"/>
</svg>
