<svg width="5262" height="339" viewBox="0 0 5262 339" fill="none" xmlns="http://www.w3.org/2000/svg">
<path d="M231.275 174.875C231.275 230.45 200.075 264.575 146.125 264.575C114.275 264.575 84.375 255.15 70.4 239.875L30.75 270.1L26.2 268.8C29.775 254.825 30.75 232.075 30.75 204.775V48.125L0.524999 25.7V21.475L112.65 15.95V108.575C125 93.3 143.525 84.85 161.725 84.85C203.65 84.85 231.275 118.975 231.275 174.875ZM144.825 200.875V153.1C144.825 140.425 140.275 131 128.9 131C117.2 131 112.65 140.425 112.65 153.1V200.875C112.65 213.55 117.2 223.3 128.9 223.3C140.275 223.3 144.825 213.55 144.825 200.875ZM468.528 92.325L441.878 115.075L374.928 256.45C346.653 316.25 326.828 338.675 277.428 338.675C244.278 338.675 225.103 321.45 225.103 299.35C225.103 282.775 239.403 265.55 260.203 265.55C275.153 265.55 285.553 272.7 290.753 279.2L290.103 283.425C286.853 283.425 282.628 287.975 282.628 293.175C282.628 298.7 286.203 302.6 293.353 302.6C301.803 302.6 306.678 297.4 312.203 285.05L315.778 277.25L245.253 115.075L217.953 92.325V88.425H358.678V92.325L333.003 115.075L360.628 194.7L392.803 115.075L366.478 92.325V88.425H468.528V92.325Z" fill="white"/>
<path d="M942.769 261H774.094V257.1L805.944 225.575V86.8L738.669 261H696.094L629.469 86.8V225.575L661.319 257.1V261H523.844V257.1L560.244 225.575V52.025L523.844 20.5V15.95H696.094L732.494 116.05L768.244 15.95H942.769V20.5L906.369 52.025V225.575L942.769 257.1V261ZM1045.25 36.1C1045.25 55.6 1029 71.2 1002.35 71.2C975.373 71.2 959.123 55.6 959.123 36.1C959.123 16.275 975.373 0.674981 1002.35 0.674981C1029 0.674981 1045.25 16.275 1045.25 36.1ZM1069.62 261H935.723V257.1L961.723 234.675V121.9L935.723 99.15V95.25L1043.62 87.45V234.675L1069.62 257.1V261ZM1313.89 261H1193.64V257.1L1205.66 234.35V163.5C1205.66 148.55 1204.69 134.9 1195.91 134.9C1187.46 134.9 1174.46 145.625 1168.94 167.4V234.35L1180.64 257.1V261H1060.71V257.1L1086.71 234.35V121.575L1060.71 99.15V95.25L1168.94 87.125L1167.64 130.025C1180.64 101.75 1207.29 84.85 1237.51 84.85C1266.44 84.85 1287.56 109.225 1287.56 141.725V234.35L1313.89 257.1V261ZM1465.92 87.45L1449.02 121.9H1414.25V205.425C1414.25 214.525 1419.12 219.725 1427.57 219.725C1438.95 219.725 1443.82 214.2 1443.82 198.6L1448.37 197.95C1453.57 204.45 1455.85 211.6 1455.85 220.375C1455.85 251.9 1434.07 264.575 1399.62 264.575C1359.65 264.575 1335.6 242.15 1335.6 201.85V121.9H1301.8L1304.07 105.65C1343.72 91.025 1381.42 65.675 1404.82 36.75L1408.72 37.725L1407.42 87.45H1465.92ZM1683.07 229.15C1683.07 254.5 1663.25 264.575 1638.22 264.575C1615.8 264.575 1591.75 255.8 1585.25 238.25C1577.45 253.525 1552.1 264.575 1530.32 264.575C1496.2 264.575 1470.85 248.975 1470.85 219.4C1470.85 183.325 1515.7 171.95 1577.45 170.325V143.35C1577.45 134.575 1572.57 130.025 1563.8 130.025C1554.37 130.025 1549.82 133.925 1549.82 140.1C1549.82 144 1552.42 147.9 1555.35 146.925L1556 151.475C1549.17 158.95 1539.42 163.5 1519.6 163.5C1500.1 163.5 1482.87 149.525 1482.87 131C1482.87 105.65 1515.7 84.85 1569 84.85C1625.22 84.85 1656.1 111.5 1656.1 141.725V217.775C1656.1 221.35 1659.35 225.25 1663.25 225.25C1669.1 225.25 1673 222.325 1673 211.925L1677.22 211.275C1680.8 215.825 1683.07 222.325 1683.07 229.15ZM1577.45 210.3V185.925C1559.57 187.875 1551.12 199.9 1551.12 210.625C1551.12 218.425 1556.32 222.975 1564.12 222.975C1571.92 222.975 1577.45 217.45 1577.45 210.3ZM2066.71 204.125C2066.71 239.225 2045.91 267.175 1994.56 267.175C1974.41 267.175 1951.99 259.05 1932.16 244.1C1911.69 259.375 1892.84 267.175 1863.91 267.175C1802.49 267.175 1766.74 238.25 1766.74 191.45C1766.74 155.7 1788.84 121.25 1834.66 109.55C1832.39 101.75 1831.41 89.725 1831.41 82.25C1831.41 37.725 1861.96 9.77498 1908.11 9.77498C1947.44 9.77498 1969.86 37.075 1969.86 67.3C1969.86 93.95 1950.69 113.125 1919.16 124.175C1929.89 141.075 1950.69 165.775 1964.99 179.1C1973.76 172.6 1977.99 167.4 1977.99 158.3C1977.99 149.85 1974.74 144.65 1968.24 144.65C1965.96 144.65 1964.01 145.3 1962.71 146.925L1960.11 144.325C1959.14 122.875 1976.69 104.025 1999.11 104.025C2018.94 104.025 2031.61 121.25 2031.61 141.4C2031.61 158.3 2019.91 174.55 1994.56 197.95C1999.76 200.55 2007.89 203.15 2014.06 203.15C2033.89 203.15 2043.96 192.425 2043.96 170.325L2054.36 168.7C2061.84 177.15 2066.71 188.525 2066.71 204.125ZM1921.76 73.475C1921.76 66.975 1918.84 61.125 1911.04 61.125C1903.89 61.125 1899.99 66.65 1899.99 73.475C1899.99 79.65 1900.96 86.475 1904.54 94.275C1917.54 89.075 1921.76 80.625 1921.76 73.475ZM1887.64 208.35C1874.64 193.075 1860.66 172.925 1851.89 155.7C1846.36 159.925 1841.81 168.05 1841.81 176.5C1841.81 196.325 1855.46 211.6 1874.64 211.6C1880.81 211.6 1884.71 210.3 1887.64 208.35ZM2435.22 130.35H2430.67L2375.1 69.9H2348.45V225.575L2384.85 257.1V261H2211.95V257.1L2248.35 225.575V69.9H2221.7L2166.12 130.35H2161.57V15.95H2435.22V130.35ZM2690.86 261H2570.61V257.1L2582.64 234.675V163.5C2582.64 148.55 2581.66 134.9 2572.89 134.9C2564.44 134.9 2551.44 145.625 2545.91 167.4V234.675L2557.61 257.1V261H2437.69V257.1L2463.69 234.675V48.125L2437.69 25.7V21.475L2545.91 15.95V130.025C2558.91 102.075 2584.26 84.85 2614.49 84.85C2643.41 84.85 2664.54 109.225 2664.54 141.725V234.675L2690.86 257.1V261ZM2875.79 151.475C2875.79 161.55 2873.84 170.325 2868.64 179.1H2774.39C2774.07 182.675 2773.74 185.925 2773.74 188.85C2773.74 218.425 2790.97 223.95 2813.07 223.95C2833.87 223.95 2855.64 213.875 2855.64 196C2855.64 195.35 2855.64 194.7 2855.64 194.05H2870.27C2872.22 199.9 2873.19 205.75 2873.19 210.95C2873.19 241.175 2841.02 264.575 2790.64 264.575C2728.89 264.575 2687.94 230.45 2687.94 174.875C2687.94 118.975 2729.87 84.85 2788.37 84.85C2845.24 84.85 2875.79 115.075 2875.79 151.475ZM2820.22 146.925C2820.22 131.975 2812.42 124.175 2799.74 124.175C2786.42 124.175 2776.67 131.325 2776.67 156.35H2819.24C2819.89 153.1 2820.22 149.85 2820.22 146.925ZM3247.74 196.975C3247.74 229.475 3215.89 261 3159.99 261H2954.26V257.1L2990.66 225.575V52.025L2954.26 20.5V15.95H3149.59C3204.84 15.95 3240.91 41.625 3240.91 79C3240.91 104.025 3222.06 128.4 3177.86 134.25C3221.41 137.825 3247.74 165.45 3247.74 196.975ZM3144.39 94.6C3144.39 80.3 3136.26 68.925 3115.14 68.925H3090.44V120.6H3115.14C3136.26 120.6 3144.39 109.55 3144.39 94.6ZM3144.39 182.35C3144.39 167.725 3136.26 156.675 3115.14 156.675H3090.44V208.35H3115.14C3136.26 208.35 3144.39 197.3 3144.39 182.35ZM3454.66 130.025C3454.66 151.8 3438.74 169.35 3418.59 169.35C3400.06 169.35 3388.69 164.8 3382.19 157.325L3382.51 152.775C3386.09 153.1 3388.36 148.875 3388.36 144.975C3388.36 138.8 3383.81 133.6 3374.39 133.6C3365.29 133.6 3360.74 138.15 3360.74 146.925V234.675L3386.74 257.1V261H3252.84V257.1L3278.84 234.675V121.9L3252.84 99.15V95.25L3357.49 87.45L3356.19 122.55C3363.34 103.7 3385.76 84.85 3409.16 84.85C3438.74 84.85 3454.66 102.725 3454.66 130.025ZM3656 174.875C3656 230.45 3610.82 264.575 3555.25 264.575C3499.67 264.575 3454.5 230.45 3454.5 174.875C3454.5 118.975 3499.67 84.85 3555.25 84.85C3610.82 84.85 3656 118.975 3656 174.875ZM3569.22 202.5V147.25C3569.22 135.875 3565.32 127.425 3555.25 127.425C3545.17 127.425 3540.95 135.875 3540.95 147.25V202.5C3540.95 213.55 3545.17 222 3555.25 222C3565.32 222 3569.22 213.55 3569.22 202.5ZM3865.41 174.875C3865.41 230.45 3820.23 264.575 3764.66 264.575C3709.08 264.575 3663.91 230.45 3663.91 174.875C3663.91 118.975 3709.08 84.85 3764.66 84.85C3820.23 84.85 3865.41 118.975 3865.41 174.875ZM3778.63 202.5V147.25C3778.63 135.875 3774.73 127.425 3764.66 127.425C3754.58 127.425 3750.36 135.875 3750.36 147.25V202.5C3750.36 213.55 3754.58 222 3764.66 222C3774.73 222 3778.63 213.55 3778.63 202.5ZM4123.57 261H3996.5V257.1L4008.52 234.675L3985.12 197.625L3971.8 208.675V234.675L3983.5 257.1V261H3863.9V257.1L3889.9 234.675V48.125L3863.9 25.7V21.475L3971.8 15.95V168.05L4024.45 115.075L3998.45 92.325V88.425H4109.27V92.325L4068.97 115.075L4034.85 147.575L4093.02 236.625L4123.57 257.1V261ZM4459.83 130.35H4455.28L4399.71 69.9H4373.06V225.575L4409.46 257.1V261H4236.56V257.1L4272.96 225.575V69.9H4246.31L4190.73 130.35H4186.18V15.95H4459.83V130.35ZM4665.75 130.025C4665.75 151.8 4649.82 169.35 4629.67 169.35C4611.15 169.35 4599.77 164.8 4593.27 157.325L4593.6 152.775C4597.17 153.1 4599.45 148.875 4599.45 144.975C4599.45 138.8 4594.9 133.6 4585.47 133.6C4576.37 133.6 4571.82 138.15 4571.82 146.925V234.675L4597.82 257.1V261H4463.92V257.1L4489.92 234.675V121.9L4463.92 99.15V95.25L4568.57 87.45L4567.27 122.55C4574.42 103.7 4596.85 84.85 4620.25 84.85C4649.82 84.85 4665.75 102.725 4665.75 130.025ZM4867.08 174.875C4867.08 230.45 4821.91 264.575 4766.33 264.575C4710.76 264.575 4665.58 230.45 4665.58 174.875C4665.58 118.975 4710.76 84.85 4766.33 84.85C4821.91 84.85 4867.08 118.975 4867.08 174.875ZM4780.31 202.5V147.25C4780.31 135.875 4776.41 127.425 4766.33 127.425C4756.26 127.425 4752.03 135.875 4752.03 147.25V202.5C4752.03 213.55 4756.26 222 4766.33 222C4776.41 222 4780.31 213.55 4780.31 202.5ZM5110.29 261H5002.39V223.95C4991.34 244.75 4968.59 264.575 4938.37 264.575C4909.44 264.575 4887.99 240.2 4887.99 207.7V119.625L4861.99 96.875V92.975L4970.22 87.45V185.925C4970.22 201.2 4970.87 214.525 4979.97 214.525C4988.09 214.525 4996.87 203.8 5002.39 182.025V119.625L4980.94 96.875V92.975L5084.29 87.45V234.675L5110.29 257.1V261ZM5261.3 87.45L5244.4 121.9H5209.63V205.425C5209.63 214.525 5214.5 219.725 5222.95 219.725C5234.33 219.725 5239.2 214.2 5239.2 198.6L5243.75 197.95C5248.95 204.45 5251.23 211.6 5251.23 220.375C5251.23 251.9 5229.45 264.575 5195 264.575C5155.03 264.575 5130.98 242.15 5130.98 201.85V121.9H5097.17L5099.45 105.65C5139.1 91.025 5176.8 65.675 5200.2 36.75L5204.1 37.725L5202.8 87.45H5261.3Z" fill="#4E78A2"/>
</svg>
