<svg width="48" height="48" viewBox="0 0 48 48" fill="none" xmlns="http://www.w3.org/2000/svg">
<path d="M38.8178 38.9382C49.296 28.4601 49.296 11.4782 38.8178 1L1 38.9382C11.4782 49.4164 28.3396 49.4164 38.8178 38.9382Z" fill="#FFECB3"/>
<path d="M28.5801 28.7009C34.2408 23.0403 35.2043 14.3687 30.2663 9.79199L9.55078 30.387C14.2479 35.325 22.7991 34.3615 28.5801 28.7009Z" fill="#FFB300"/>
<path d="M37.1317 37.2521C27.617 46.7668 12.2008 46.7668 2.68614 37.2521L1 38.9382C11.4782 49.4164 28.4601 49.4164 38.9382 38.9382C49.4164 28.4601 49.4164 11.4782 38.9382 1L37.2521 2.68614C46.6463 12.3213 46.6463 27.7374 37.1317 37.2521Z" fill="#4CAF50"/>
<path d="M25.9357 24.3658C26.4175 24.8476 27.6219 27.8585 27.6219 27.8585C27.6219 27.8585 24.6109 26.6541 24.1291 26.1724C23.6474 25.6906 23.6474 24.968 24.1291 24.4862C24.7313 23.884 25.454 23.884 25.9357 24.3658ZM14.7349 30.3877C14.2532 30.8695 14.2532 31.5921 14.7349 32.0739C15.2167 32.5556 17.2641 32.917 17.2641 32.917C17.2641 32.917 16.9028 30.7491 16.4211 30.3877C15.9393 30.0264 15.2167 29.906 14.7349 30.3877ZM30.2715 14.8511C29.7898 15.3329 29.7898 16.0555 30.2715 16.5373C30.7533 17.019 32.8007 17.3803 32.8007 17.3803C32.8007 17.3803 32.4394 15.2124 31.9577 14.8511C31.4759 14.3694 30.7533 14.3694 30.2715 14.8511ZM26.7788 21.7161C26.297 22.1979 26.297 22.9205 26.7788 23.4023C27.2606 23.884 30.2715 25.0884 30.2715 25.0884C30.2715 25.0884 29.0671 22.0775 28.5854 21.5957C28.1036 21.2344 27.2606 21.2344 26.7788 21.7161ZM21.5999 26.895C21.1182 27.3768 21.1182 28.0994 21.5999 28.5812C22.0817 29.0629 25.0927 30.2673 25.0927 30.2673C25.0927 30.2673 23.8883 27.2563 23.4065 26.7746C22.9248 26.4133 22.0817 26.4133 21.5999 26.895ZM18.2276 28.7016C17.7459 29.1834 17.7459 29.906 18.2276 30.3877C18.7094 30.8695 21.7204 32.0739 21.7204 32.0739C21.7204 32.0739 20.516 29.0629 20.0342 28.5812C19.432 28.2198 18.7094 28.2198 18.2276 28.7016ZM28.5854 18.3439C28.1036 18.8256 28.1036 19.5482 28.5854 20.03C29.0671 20.5118 32.0781 21.7161 32.0781 21.7161C32.0781 21.7161 30.8737 18.7052 30.392 18.2234C29.7898 17.8621 28.9467 17.8621 28.5854 18.3439ZM19.9138 20.03C19.432 20.5118 19.432 21.2344 19.9138 21.7161C20.3955 22.1979 23.4065 23.4023 23.4065 23.4023C23.4065 23.4023 22.2021 20.3913 21.7204 19.9096C21.1182 19.5482 20.3955 19.5482 19.9138 20.03ZM17.3846 22.5592C16.9028 23.041 16.9028 23.7636 17.3846 24.2454C17.8663 24.7271 20.8773 25.9315 20.8773 25.9315C20.8773 25.9315 19.6729 22.9205 19.1912 22.4388C18.589 22.1979 17.7459 22.1979 17.3846 22.5592ZM22.443 17.5008C21.9612 17.9825 21.9612 18.7052 22.443 19.1869C22.9248 19.6687 25.9357 20.8731 25.9357 20.8731C25.9357 20.8731 24.7313 17.8621 24.2496 17.3803C23.7678 17.019 22.9248 17.019 22.443 17.5008ZM25.0927 14.8511C24.6109 15.3329 24.6109 16.0555 25.0927 16.5373C25.5744 17.019 27.6219 17.3803 27.6219 17.3803C27.6219 17.3803 27.2606 15.2124 26.7788 14.8511C26.297 14.3694 25.5744 14.3694 25.0927 14.8511ZM26.7788 13.165C27.2606 13.6467 29.308 14.0081 29.308 14.0081C29.308 14.0081 28.9467 11.8402 28.5854 11.3584L26.7788 13.165ZM14.7349 25.2089C14.2532 25.6906 14.2532 26.4133 14.7349 26.895C15.2167 27.3768 17.2641 27.7381 17.2641 27.7381C17.2641 27.7381 16.9028 25.5702 16.4211 25.2089C15.9393 24.7271 15.2167 24.7271 14.7349 25.2089ZM11.2422 28.7016C11.7239 29.1834 13.7714 29.5447 13.7714 29.5447C13.7714 29.5447 13.4101 27.3768 12.9283 27.0155L11.2422 28.7016Z" fill="#F57F17"/>
</svg>
