<svg width="1273" height="206" viewBox="0 0 1273 206" fill="none" xmlns="http://www.w3.org/2000/svg">
<path d="M1237.42 87.8823C1237.42 89.7593 1237.21 91.8393 1236.79 93.9192H1209.52C1209.52 77.8714 1215.77 73.2888 1224.3 73.2888C1232.84 73.2888 1237.42 78.2942 1237.42 87.8654M1273 90.8078C1273 67.4717 1253.43 48.1095 1217 48.1095C1180.57 48.1095 1152.7 69.9744 1152.7 105.807C1152.7 141.64 1178.92 163.302 1218.47 163.302C1250.73 163.302 1271.34 148.302 1271.34 128.94C1271.34 125.609 1270.72 121.855 1269.47 118.118H1260.11V119.369C1260.11 130.817 1246.17 137.277 1232.84 137.277C1218.68 137.277 1207.64 133.743 1207.64 114.786C1207.64 112.909 1207.85 110.829 1208.07 108.53H1268.42C1271.75 102.899 1273 97.2844 1273 90.8247M1093.95 119.555C1093.95 127.672 1091.02 133.726 1083.74 133.726C1076.46 133.726 1073.33 127.689 1073.33 119.555V91.8562C1073.33 83.7393 1076.25 77.6854 1083.74 77.6854C1091.22 77.6854 1093.95 83.7224 1093.95 91.8562V119.555ZM1149.32 105.604C1149.32 69.9744 1131.63 48.1095 1104.78 48.1095C1093.12 48.1095 1080.43 53.5208 1072.52 63.3118L1073.35 49.5638L1004.24 54.7721V57.2748L1020.88 71.6485V188.921L1004.24 203.497V206H1089.99V203.497L1073.33 188.921V148.1C1081.24 157.891 1093.1 163.302 1104.76 163.302C1131.61 163.302 1149.3 141.437 1149.3 105.604M1018.42 161.002V158.499L1001.77 144.126V49.7667L935.589 53.3009V55.8036L949.326 70.3802V110.373C945.795 124.324 940.168 131.206 934.964 131.206C929.135 131.206 928.712 122.667 928.712 112.876V49.7667L859.402 53.3009V55.8036L876.045 70.3802V126.826C876.045 147.66 889.782 163.285 908.301 163.285C926.82 163.285 942.23 150.585 949.309 137.243V160.985H1018.42V161.002ZM813.916 123.512C813.916 130.597 811.415 136.009 804.96 136.009C798.506 136.009 795.802 130.597 795.802 123.512V88.1021C795.802 80.8138 798.506 75.4026 804.96 75.4026C811.415 75.4026 813.916 80.8138 813.916 88.1021V123.512ZM869.489 105.807C869.489 69.9744 840.562 48.1095 804.96 48.1095C769.359 48.1095 740.432 69.9744 740.432 105.807C740.432 141.64 769.359 163.302 804.96 163.302C840.562 163.302 869.489 141.437 869.489 105.807ZM748.982 161.002V158.499L732.338 144.126V3.94008L663.231 7.4743V10.1799L679.891 24.5536V144.126L663.231 158.499V161.002H748.982ZM603.416 128.517C603.416 133.1 599.868 136.634 594.883 136.634C589.899 136.634 586.553 133.709 586.553 128.72C586.553 121.838 591.96 114.144 603.416 112.892V128.517ZM671.054 140.591C671.054 136.212 669.601 132.052 667.303 129.143L664.599 129.566C664.599 136.229 662.099 138.106 658.364 138.106C655.864 138.106 653.785 135.603 653.785 133.32V84.5679C653.785 65.1888 634.016 48.1095 598.009 48.1095C563.878 48.1095 542.858 61.4347 542.858 77.6854C542.858 89.5564 553.892 98.5188 566.379 98.5188C578.865 98.5188 585.32 95.6102 589.696 90.8078L589.274 87.8992C587.398 88.5249 585.742 86.0222 585.742 83.5195C585.742 79.5625 588.665 77.0598 594.697 77.0598C600.324 77.0598 603.433 79.9852 603.433 85.5994V102.882C563.895 103.93 535.17 111.218 535.17 134.335C535.17 153.291 551.408 163.285 573.256 163.285C587.195 163.285 603.433 156.199 608.434 146.408C612.591 157.654 628.001 163.285 642.363 163.285C658.398 163.285 671.088 156.825 671.088 140.574M539.8 49.7667H502.34L503.168 17.891L500.667 17.2653C485.68 35.7989 461.534 52.0496 436.138 61.4178L434.685 71.8345H456.33V123.072C456.33 148.894 471.74 163.268 497.338 163.268C519.406 163.268 533.345 155.151 533.345 134.943C533.345 129.312 531.892 124.73 528.564 120.57L525.657 120.992C525.657 130.986 522.532 134.538 515.249 134.538C509.842 134.538 506.716 131.206 506.716 125.372V71.8345H528.986L539.8 49.7498V49.7667ZM450.298 161.002V158.499L433.435 143.923V84.551C433.435 63.7176 419.901 48.0926 401.382 48.0926C382.863 48.0926 364.953 58.932 356.639 77.0429L357.467 49.5469L288.157 54.7552V57.2579L304.8 71.6316V143.906L288.157 158.482V160.985H364.953V158.482L357.467 143.906V100.988C360.999 87.0368 369.329 80.1543 374.736 80.1543C380.143 80.1543 380.988 88.8969 380.988 98.485V143.889L373.283 158.465V160.968H450.298V161.002ZM228.157 128.517C228.157 133.1 224.625 136.634 219.624 136.634C214.622 136.634 211.294 133.709 211.294 128.72C211.294 121.838 216.701 114.144 228.157 112.892V128.517ZM295.811 140.591C295.811 136.212 294.358 132.052 292.06 129.143L289.357 129.566C289.357 136.229 286.856 138.106 283.105 138.106C280.604 138.106 278.526 135.603 278.526 133.32V84.5679C278.526 65.1888 258.757 48.1095 222.75 48.1095C188.618 48.1095 167.599 61.4347 167.599 77.6854C167.599 89.5564 178.632 98.5188 191.119 98.5188C203.606 98.5188 210.06 95.6102 214.436 90.8078L214.014 87.8992C212.139 88.5249 210.483 86.0222 210.483 83.5195C210.483 79.5625 213.389 77.0598 219.438 77.0598C225.065 77.0598 228.174 79.9852 228.174 85.5994V102.882C188.635 103.93 159.911 111.218 159.911 134.335C159.911 153.291 176.148 163.285 197.996 163.285C211.936 163.285 228.173 156.199 233.175 146.408C237.332 157.654 252.741 163.285 267.104 163.285C283.139 163.285 295.828 156.825 295.828 140.574M158.39 109.561C158.39 103.93 157.562 98.3159 155.687 92.2789H132.589V96.2359C132.589 118.101 115.32 133.32 96.7845 133.32C78.2488 133.32 66.8097 117.695 66.8097 83.9591C66.8097 50.2233 78.046 33.1271 96.9873 33.1271C115.928 33.1271 131.947 44.1694 147.982 70.4141H150.888V0H147.982L128.838 22.7104C119.477 9.79099 105.52 0 83.6726 0C44.9622 0 0 31.2501 0 82.488C0 133.726 42.8839 164.976 89.7048 164.976C131.963 164.976 158.39 140.811 158.39 109.561Z" fill="white"/>
</svg>
