<svg width="13" height="13" viewBox="0 0 13 13" fill="none" xmlns="http://www.w3.org/2000/svg">
<path d="M10.735 10.7692C13.7094 7.79487 13.7094 2.97436 10.735 0L0 10.7692C2.97436 13.7436 7.76068 13.7436 10.735 10.7692Z" fill="#FFECB3"/>
<path d="M8.40171 8.36752C10.0085 6.76068 10.2821 4.29915 8.88034 3L3 8.84615C4.33333 10.2479 6.76068 9.97436 8.40171 8.36752Z" fill="#FFB300"/>
<path d="M10.2564 10.2906C7.55556 12.9915 3.17949 12.9915 0.478633 10.2906L0 10.7692C2.97436 13.7436 7.79487 13.7436 10.7692 10.7692C13.7436 7.79487 13.7436 2.97436 10.7692 0L10.2906 0.478632C12.9573 3.21368 12.9573 7.58974 10.2564 10.2906Z" fill="#4CAF50"/>
<path d="M7.17094 6.69231C7.30769 6.82906 7.64957 7.68376 7.64957 7.68376C7.64957 7.68376 6.79487 7.34188 6.65812 7.20513C6.52137 7.06838 6.52137 6.86325 6.65812 6.7265C6.82906 6.55556 7.03419 6.55556 7.17094 6.69231ZM3.99145 8.40171C3.8547 8.53846 3.8547 8.74359 3.99145 8.88034C4.12821 9.01709 4.7094 9.11966 4.7094 9.11966C4.7094 9.11966 4.60684 8.50427 4.47009 8.40171C4.33333 8.29915 4.12821 8.26496 3.99145 8.40171ZM8.40171 3.99145C8.26496 4.12821 8.26496 4.33333 8.40171 4.47009C8.53846 4.60684 9.11966 4.7094 9.11966 4.7094C9.11966 4.7094 9.01709 4.09402 8.88034 3.99145C8.74359 3.8547 8.53846 3.8547 8.40171 3.99145ZM7.41026 5.94017C7.2735 6.07692 7.2735 6.28205 7.41026 6.4188C7.54701 6.55556 8.40171 6.89744 8.40171 6.89744C8.40171 6.89744 8.05983 6.04274 7.92308 5.90598C7.78632 5.80342 7.54701 5.80342 7.41026 5.94017ZM5.94017 7.41026C5.80342 7.54701 5.80342 7.75214 5.94017 7.88889C6.07692 8.02564 6.93162 8.36752 6.93162 8.36752C6.93162 8.36752 6.58974 7.51282 6.45299 7.37607C6.31624 7.2735 6.07692 7.2735 5.94017 7.41026ZM4.98291 7.92308C4.84615 8.05983 4.84615 8.26496 4.98291 8.40171C5.11966 8.53846 5.97436 8.88034 5.97436 8.88034C5.97436 8.88034 5.63248 8.02564 5.49573 7.88889C5.32479 7.78632 5.11966 7.78632 4.98291 7.92308ZM7.92308 4.98291C7.78632 5.11966 7.78632 5.32479 7.92308 5.46154C8.05983 5.59829 8.91453 5.94017 8.91453 5.94017C8.91453 5.94017 8.57265 5.08547 8.4359 4.94872C8.26496 4.84615 8.02564 4.84615 7.92308 4.98291ZM5.46154 5.46154C5.32479 5.59829 5.32479 5.80342 5.46154 5.94017C5.59829 6.07692 6.45299 6.4188 6.45299 6.4188C6.45299 6.4188 6.11111 5.5641 5.97436 5.42735C5.80342 5.32479 5.59829 5.32479 5.46154 5.46154ZM4.74359 6.17949C4.60684 6.31624 4.60684 6.52137 4.74359 6.65812C4.88034 6.79487 5.73504 7.13675 5.73504 7.13675C5.73504 7.13675 5.39316 6.28205 5.25641 6.1453C5.08547 6.07692 4.84615 6.07692 4.74359 6.17949ZM6.17949 4.74359C6.04273 4.88034 6.04273 5.08547 6.17949 5.22222C6.31624 5.35897 7.17094 5.70085 7.17094 5.70085C7.17094 5.70085 6.82906 4.84615 6.69231 4.7094C6.55556 4.60684 6.31624 4.60684 6.17949 4.74359ZM6.93162 3.99145C6.79487 4.12821 6.79487 4.33333 6.93162 4.47009C7.06838 4.60684 7.64957 4.7094 7.64957 4.7094C7.64957 4.7094 7.54701 4.09402 7.41026 3.99145C7.2735 3.8547 7.06838 3.8547 6.93162 3.99145ZM7.41026 3.51282C7.54701 3.64957 8.12821 3.75214 8.12821 3.75214C8.12821 3.75214 8.02564 3.13675 7.92308 3L7.41026 3.51282ZM3.99145 6.93162C3.8547 7.06838 3.8547 7.2735 3.99145 7.41026C4.12821 7.54701 4.7094 7.64957 4.7094 7.64957C4.7094 7.64957 4.60684 7.03419 4.47009 6.93162C4.33333 6.79487 4.12821 6.79487 3.99145 6.93162ZM3 7.92308C3.13675 8.05983 3.71795 8.16239 3.71795 8.16239C3.71795 8.16239 3.61538 7.54701 3.47863 7.44444L3 7.92308Z" fill="#F57F17"/>
</svg>
