<svg width="2393" height="490" viewBox="0 0 2393 490" fill="none" xmlns="http://www.w3.org/2000/svg">
<path d="M2345.71 486.56V283.2H2355.32V486.56H2345.71ZM2307.89 352.33V343.96H2392.83V352.33H2307.89Z" fill="white"/>
<path d="M2219.01 489.66C2207.85 489.66 2197.83 487.077 2188.94 481.91C2180.26 476.537 2173.44 469.2 2168.48 459.9C2163.52 450.393 2161.04 439.44 2161.04 427.04V343.96H2170.65V426.73C2170.65 437.27 2172.61 446.673 2176.54 454.94C2180.67 463 2186.36 469.407 2193.59 474.16C2201.03 478.707 2209.5 480.98 2219.01 480.98C2233.48 480.98 2245.15 475.917 2254.04 465.79C2262.93 455.663 2267.37 442.643 2267.37 426.73V343.96H2276.98V427.04C2276.98 439.233 2274.5 450.083 2269.54 459.59C2264.58 469.097 2257.76 476.537 2249.08 481.91C2240.4 487.077 2230.38 489.66 2219.01 489.66Z" fill="white"/>
<path d="M2050.92 489.66C2037.07 489.66 2024.57 486.353 2013.41 479.74C2002.45 473.127 1993.67 464.137 1987.06 452.77C1980.65 441.403 1977.45 428.693 1977.45 414.64C1977.45 400.793 1980.65 388.29 1987.06 377.13C1993.67 365.97 2002.45 357.187 2013.41 350.78C2024.57 344.167 2037.07 340.86 2050.92 340.86C2064.56 340.86 2076.85 344.167 2087.81 350.78C2098.97 357.187 2107.75 365.97 2114.16 377.13C2120.77 388.29 2124.08 400.793 2124.08 414.64C2124.08 428.9 2120.77 441.713 2114.16 453.08C2107.75 464.24 2098.97 473.127 2087.81 479.74C2076.85 486.353 2064.56 489.66 2050.92 489.66ZM2050.92 480.67C2062.9 480.67 2073.65 477.777 2083.16 471.99C2092.66 466.203 2100.21 458.35 2105.79 448.43C2111.37 438.303 2114.16 426.937 2114.16 414.33C2114.16 402.137 2111.37 391.183 2105.79 381.47C2100.21 371.757 2092.66 364.11 2083.16 358.53C2073.65 352.743 2062.9 349.85 2050.92 349.85C2038.93 349.85 2028.08 352.743 2018.37 358.53C2008.86 364.11 2001.32 371.757 1995.74 381.47C1990.16 391.183 1987.37 402.24 1987.37 414.64C1987.37 427.247 1990.16 438.51 1995.74 448.43C2001.32 458.35 2008.86 466.203 2018.37 471.99C2028.08 477.777 2038.93 480.67 2050.92 480.67Z" fill="white"/>
<path d="M1873.22 486.56V343.96H1882.83V486.56H1873.22ZM1882.83 399.45L1876.32 397.59C1876.32 379.403 1881.07 365.453 1890.58 355.74C1900.29 345.82 1912.38 340.86 1926.85 340.86C1933.88 340.86 1940.39 342.1 1946.38 344.58C1952.58 347.06 1958.26 350.987 1963.43 356.36L1956.92 363.49C1952.58 358.737 1947.83 355.327 1942.66 353.26C1937.7 351.193 1931.91 350.16 1925.3 350.16C1912.69 350.16 1902.46 354.5 1894.61 363.18C1886.76 371.653 1882.83 383.743 1882.83 399.45Z" fill="white"/>
<path d="M1781.01 486.56V282.89H1790.93V486.56H1781.01ZM1701.34 285.99V277H1870.6V285.99H1701.34Z" fill="white"/>
<path d="M1596.29 486.56L1510.11 413.09L1594.12 343.96H1607.45L1520.03 415.57V410.3L1610.24 486.56H1596.29ZM1502.67 486.56V270.8H1512.28V486.56H1502.67Z" fill="white"/>
<path d="M1389.13 489.66C1375.29 489.66 1362.78 486.353 1351.62 479.74C1340.67 473.127 1331.89 464.137 1325.27 452.77C1318.87 441.403 1315.66 428.693 1315.66 414.64C1315.66 400.793 1318.87 388.29 1325.27 377.13C1331.89 365.97 1340.67 357.187 1351.62 350.78C1362.78 344.167 1375.29 340.86 1389.13 340.86C1402.77 340.86 1415.07 344.167 1426.02 350.78C1437.18 357.187 1445.97 365.97 1452.37 377.13C1458.99 388.29 1462.29 400.793 1462.29 414.64C1462.29 428.9 1458.99 441.713 1452.37 453.08C1445.97 464.24 1437.18 473.127 1426.02 479.74C1415.07 486.353 1402.77 489.66 1389.13 489.66ZM1389.13 480.67C1401.12 480.67 1411.87 477.777 1421.37 471.99C1430.88 466.203 1438.42 458.35 1444 448.43C1449.58 438.303 1452.37 426.937 1452.37 414.33C1452.37 402.137 1449.58 391.183 1444 381.47C1438.42 371.757 1430.88 364.11 1421.37 358.53C1411.87 352.743 1401.12 349.85 1389.13 349.85C1377.15 349.85 1366.3 352.743 1356.58 358.53C1347.08 364.11 1339.53 371.757 1333.95 381.47C1328.37 391.183 1325.58 402.24 1325.58 414.64C1325.58 427.247 1328.37 438.51 1333.95 448.43C1339.53 458.35 1347.08 466.203 1356.58 471.99C1366.3 477.777 1377.15 480.67 1389.13 480.67Z" fill="white"/>
<path d="M1211.43 489.66C1197.58 489.66 1185.08 486.353 1173.92 479.74C1162.97 473.127 1154.18 464.137 1147.57 452.77C1141.16 441.403 1137.96 428.693 1137.96 414.64C1137.96 400.793 1141.16 388.29 1147.57 377.13C1154.18 365.97 1162.97 357.187 1173.92 350.78C1185.08 344.167 1197.58 340.86 1211.43 340.86C1225.07 340.86 1237.37 344.167 1248.32 350.78C1259.48 357.187 1268.26 365.97 1274.67 377.13C1281.28 388.29 1284.59 400.793 1284.59 414.64C1284.59 428.9 1281.28 441.713 1274.67 453.08C1268.26 464.24 1259.48 473.127 1248.32 479.74C1237.37 486.353 1225.07 489.66 1211.43 489.66ZM1211.43 480.67C1223.42 480.67 1234.16 477.777 1243.67 471.99C1253.18 466.203 1260.72 458.35 1266.3 448.43C1271.88 438.303 1274.67 426.937 1274.67 414.33C1274.67 402.137 1271.88 391.183 1266.3 381.47C1260.72 371.757 1253.18 364.11 1243.67 358.53C1234.16 352.743 1223.42 349.85 1211.43 349.85C1199.44 349.85 1188.59 352.743 1178.88 358.53C1169.37 364.11 1161.83 371.757 1156.25 381.47C1150.67 391.183 1147.88 402.24 1147.88 414.64C1147.88 427.247 1150.67 438.51 1156.25 448.43C1161.83 458.35 1169.37 466.203 1178.88 471.99C1188.59 477.777 1199.44 480.67 1211.43 480.67Z" fill="white"/>
<path d="M1033.73 486.56V343.96H1043.34V486.56H1033.73ZM1043.34 399.45L1036.83 397.59C1036.83 379.403 1041.59 365.453 1051.09 355.74C1060.81 345.82 1072.9 340.86 1087.36 340.86C1094.39 340.86 1100.9 342.1 1106.89 344.58C1113.09 347.06 1118.78 350.987 1123.94 356.36L1117.43 363.49C1113.09 358.737 1108.34 355.327 1103.17 353.26C1098.21 351.193 1092.43 350.16 1085.81 350.16C1073.21 350.16 1062.98 354.5 1055.12 363.18C1047.27 371.653 1043.34 383.743 1043.34 399.45Z" fill="white"/>
<path d="M850.23 486.56V477.57H923.08C940.026 477.57 953.563 473.127 963.69 464.24C974.023 455.353 979.19 443.573 979.19 428.9C979.19 419.393 976.916 411.023 972.37 403.79C968.03 396.557 961.933 390.873 954.08 386.74C946.226 382.607 937.133 380.54 926.8 380.54H850.23V372.17H925.25C938.89 372.17 949.636 368.347 957.49 360.7C965.343 352.847 969.27 342.307 969.27 329.08C969.27 315.647 964.826 305.107 955.94 297.46C947.053 289.813 935.17 285.99 920.29 285.99H850.23V277H920.29C932.276 277 942.61 279.067 951.29 283.2C960.176 287.333 966.996 293.223 971.75 300.87C976.71 308.517 979.19 317.713 979.19 328.46C979.19 340.86 976.09 351.4 969.89 360.08C963.69 368.553 954.7 374.547 942.92 378.06L944.47 374.34C958.523 377.647 969.476 384.157 977.33 393.87C985.39 403.583 989.42 415.26 989.42 428.9C989.42 440.473 986.63 450.6 981.049 459.28C975.47 467.96 967.616 474.677 957.49 479.43C947.363 484.183 935.376 486.56 921.53 486.56H850.23ZM845.27 486.56V277H855.19V486.56H845.27Z" fill="white"/>
<path d="M665.327 489.66C651.067 489.66 638.254 486.457 626.887 480.05C615.727 473.437 606.841 464.55 600.227 453.39C593.821 442.023 590.617 429.21 590.617 414.95C590.617 400.897 593.717 388.29 599.917 377.13C606.324 365.97 615.004 357.187 625.957 350.78C637.117 344.167 649.621 340.86 663.467 340.86C676.281 340.86 687.544 343.753 697.257 349.54C707.177 355.12 714.927 362.973 720.507 373.1C726.087 383.227 728.877 394.903 728.877 408.13C728.877 408.957 728.774 410.3 728.567 412.16C728.567 413.813 728.361 415.983 727.947 418.67H597.437V409.68H721.747L718.957 411.85C719.784 399.657 717.924 388.91 713.377 379.61C708.831 370.31 702.217 363.077 693.537 357.91C685.064 352.537 674.937 349.85 663.157 349.85C650.757 349.85 639.804 352.64 630.297 358.22C620.997 363.593 613.661 371.137 608.287 380.85C603.121 390.357 600.537 401.517 600.537 414.33C600.537 427.557 603.224 439.13 608.597 449.05C614.177 458.97 621.927 466.72 631.847 472.3C641.767 477.88 653.341 480.67 666.567 480.67C676.487 480.67 685.581 478.81 693.847 475.09C702.321 471.37 709.451 465.79 715.237 458.35L721.747 464.86C715.341 472.507 707.177 478.603 697.257 483.15C687.544 487.49 676.901 489.66 665.327 489.66Z" fill="white"/>
<path d="M543.774 486.56V401.31C543.774 385.81 539.331 373.306 530.444 363.8C521.557 354.293 509.674 349.54 494.794 349.54C484.667 349.54 475.677 351.813 467.824 356.36C460.177 360.7 454.081 366.693 449.534 374.34C445.194 381.986 443.024 390.873 443.024 401L436.514 397.28C436.514 386.533 439.097 376.923 444.264 368.45C449.637 359.976 456.767 353.26 465.654 348.3C474.747 343.34 484.977 340.86 496.344 340.86C507.711 340.86 517.631 343.443 526.104 348.61C534.784 353.776 541.501 360.906 546.254 370C551.007 379.093 553.384 389.53 553.384 401.31V486.56H543.774ZM433.414 486.56V270.8H443.024V486.56H433.414Z" fill="white"/>
<path d="M303.971 486.56V282.89H313.891V486.56H303.971ZM224.301 285.99V277H393.561V285.99H224.301Z" fill="white"/>
<path d="M67.62 320.27C61.4867 320.27 56.2733 322.723 51.98 327.63C47.6867 332.537 45.54 338.133 45.54 344.42C45.54 349.633 47.3033 355.23 50.83 361.21C54.2033 366.27 57.5767 371.33 60.95 376.39C67.0833 371.637 73.2167 366.883 79.35 362.13C85.6367 356.15 88.78 349.403 88.78 341.89C88.78 335.91 86.71 330.85 82.57 326.71C78.5833 322.417 73.6 320.27 67.62 320.27ZM131.1 486.56L109.25 457.81C83.7967 479.277 62.4833 490.01 45.31 490.01C32.5833 490.01 21.85 485.563 13.11 476.67C4.37 467.623 0 456.813 0 444.24C0 430.9 5.82667 418.48 17.48 406.98C23.92 400.54 35.65 391.953 52.67 381.22C45.77 371.56 41.7067 365.657 40.48 363.51C36.4933 356.457 34.5 349.71 34.5 343.27C34.5 334.07 37.7967 326.25 44.39 319.81C51.1367 313.217 59.11 309.92 68.31 309.92C77.2033 309.92 84.64 313.063 90.62 319.35C96.7533 325.637 99.82 333.227 99.82 342.12C99.82 351.013 96.5233 359.14 89.93 366.5C85.6367 371.407 78.1233 377.54 67.39 384.9L110.17 443.32L132.25 419.17L140.76 423.77L116.61 451.37L143.06 486.56H131.1ZM59.11 389.96L48.07 397.32C36.11 405.293 27.9067 411.58 23.46 416.18C15.18 424.46 11.04 433.43 11.04 443.09C11.04 453.057 14.26 461.643 20.7 468.85C27.14 476.057 35.3433 479.66 45.31 479.66C54.2033 479.66 64.3233 476.21 75.67 469.31C82.4167 465.17 91.4633 458.423 102.81 449.07L59.11 389.96Z" fill="white"/>
<path d="M663.65 212.66C649.596 212.66 636.99 209.457 625.83 203.05C614.876 196.437 606.196 187.55 599.79 176.39C593.383 165.23 590.18 152.623 590.18 138.57C590.18 124.517 593.383 111.91 599.79 100.75C606.196 89.3832 614.876 80.3932 625.83 73.7799C636.783 67.1665 649.183 63.8599 663.03 63.8599C673.983 63.8599 683.8 65.9265 692.48 70.0599C701.366 73.9865 708.703 79.6699 714.49 87.1099C720.483 94.5499 724.616 103.437 726.89 113.77V162.44C724.41 172.773 720.173 181.763 714.18 189.41C708.393 196.85 701.16 202.637 692.48 206.77C684.006 210.697 674.396 212.66 663.65 212.66ZM664.89 203.67C682.663 203.67 696.82 197.78 707.36 186C717.9 174.013 723.17 158.203 723.17 138.57C723.17 125.343 720.69 113.873 715.73 104.16C710.976 94.2399 704.156 86.5932 695.27 81.2199C686.383 75.6399 676.05 72.8499 664.27 72.8499C651.87 72.8499 640.813 75.7432 631.1 81.5299C621.593 87.1099 614.05 94.8599 608.47 104.78C602.89 114.493 600.1 125.653 600.1 138.26C600.1 150.867 602.89 162.13 608.47 172.05C614.05 181.763 621.696 189.513 631.41 195.3C641.33 200.88 652.49 203.67 664.89 203.67ZM722.86 209.56V171.43L725.65 136.09L722.86 101.68V66.9599H732.47V209.56H722.86Z" fill="white"/>
<path d="M524.023 209.56V6.2002H533.633V209.56H524.023ZM486.203 75.3302V66.9602H571.143V75.3302H486.203Z" fill="white"/>
<path d="M447.063 209.56V124.31C447.063 108.81 442.62 96.3065 433.733 86.7999C424.846 77.2932 412.963 72.5399 398.083 72.5399C387.956 72.5399 378.966 74.8132 371.113 79.3599C363.466 83.6999 357.37 89.6932 352.823 97.3399C348.483 104.987 346.313 113.873 346.313 124L339.803 120.28C339.803 109.533 342.386 99.9232 347.553 91.4499C352.926 82.9765 360.056 76.2599 368.943 71.2999C378.036 66.3399 388.266 63.8599 399.633 63.8599C411 63.8599 420.92 66.4432 429.393 71.6099C438.073 76.7765 444.79 83.9065 449.543 92.9999C454.296 102.093 456.673 112.53 456.673 124.31V209.56H447.063ZM336.703 209.56V66.9599H346.313V209.56H336.703Z" fill="white"/>
<path d="M277.065 209.56V66.9602H286.675V209.56H277.065ZM281.715 31.3102C279.029 31.3102 276.755 30.2768 274.895 28.2102C273.035 26.1435 272.105 23.7668 272.105 21.0802C272.105 18.1868 273.035 15.8102 274.895 13.9502C276.755 12.0902 279.029 11.1602 281.715 11.1602C284.609 11.1602 286.985 12.0902 288.845 13.9502C290.912 15.8102 291.945 18.1868 291.945 21.0802C291.945 23.7668 290.912 26.1435 288.845 28.2102C286.985 30.2768 284.609 31.3102 281.715 31.3102Z" fill="white"/>
<path d="M25.6328 209.56V0H33.0728L127.003 153.76H120.183L214.113 0H221.553V209.56H211.633V16.74L214.113 17.36L127.313 159.65H119.873L33.0728 17.36L35.5528 16.74V209.56H25.6328Z" fill="white"/>
</svg>
