<svg width="1402" height="259" viewBox="0 0 1402 259" fill="none" xmlns="http://www.w3.org/2000/svg">
<path d="M1401.25 252H1281V248.1L1293.03 225.675V154.5C1293.03 139.55 1292.05 125.9 1283.28 125.9C1274.83 125.9 1261.83 136.625 1256.3 158.4V225.675L1268 248.1V252H1148.08V248.1L1174.08 225.675V39.1249L1148.08 16.6999V12.4749L1256.3 6.94995V121.025C1269.3 93.0749 1294.65 75.8499 1324.88 75.8499C1353.8 75.8499 1374.93 100.225 1374.93 132.725V225.675L1401.25 248.1V252Z" fill="white"/>
<path d="M1145.59 132.725C1145.59 153.85 1133.57 167.5 1113.42 167.5C1096.52 167.5 1083.52 160.675 1077.02 149.3L1077.67 144.75C1082.87 145.725 1086.12 141.5 1086.12 135.975C1086.12 125.9 1078.97 116.8 1068.89 116.8C1056.22 116.8 1047.77 134.675 1047.77 165.875C1047.77 205.2 1062.72 214.95 1086.44 214.95C1104.64 214.95 1126.74 202.275 1126.74 182.775H1141.04C1148.19 220.475 1113.42 255.575 1059.47 255.575C1009.09 255.575 963.266 221.45 963.266 165.875C963.266 109.975 1009.09 75.8501 1059.47 75.8501C1112.77 75.8501 1145.59 105.1 1145.59 132.725Z" fill="white"/>
<path d="M959.57 78.45L942.67 112.9H907.895V196.425C907.895 205.525 912.77 210.725 921.22 210.725C932.595 210.725 937.47 205.2 937.47 189.6L942.02 188.95C947.22 195.45 949.495 202.6 949.495 211.375C949.495 242.9 927.72 255.575 893.27 255.575C853.295 255.575 829.245 233.15 829.245 192.85V112.9H795.445L797.72 96.65C837.37 82.025 875.07 56.675 898.47 27.75L902.37 28.725L901.07 78.45H959.57Z" fill="white"/>
<path d="M793.424 142.475C793.424 152.55 791.474 161.325 786.274 170.1H692.024C691.699 173.675 691.374 176.925 691.374 179.85C691.374 209.425 708.599 214.95 730.699 214.95C751.499 214.95 773.274 204.875 773.274 187C773.274 186.35 773.274 185.7 773.274 185.05H787.899C789.849 190.9 790.824 196.75 790.824 201.95C790.824 232.175 758.649 255.575 708.274 255.575C646.524 255.575 605.574 221.45 605.574 165.875C605.574 109.975 647.499 75.8501 705.999 75.8501C762.874 75.8501 793.424 106.075 793.424 142.475ZM737.849 137.925C737.849 122.975 730.049 115.175 717.374 115.175C704.049 115.175 694.299 122.325 694.299 147.35H736.874C737.524 144.1 737.849 140.85 737.849 137.925Z" fill="white"/>
<path d="M604.727 121.025C604.727 142.8 588.802 160.35 568.652 160.35C550.127 160.35 538.752 155.8 532.252 148.325L532.577 143.775C536.152 144.1 538.427 139.875 538.427 135.975C538.427 129.8 533.877 124.6 524.452 124.6C515.352 124.6 510.802 129.15 510.802 137.925V225.675L536.802 248.1V252H402.902V248.1L428.902 225.675V112.9L402.902 90.1501V86.2501L507.552 78.4501L506.252 113.55C513.402 94.7001 535.827 75.8501 559.227 75.8501C588.802 75.8501 604.727 93.7251 604.727 121.025Z" fill="white"/>
<path d="M403.832 78.45L386.932 112.9H352.157V196.425C352.157 205.525 357.032 210.725 365.482 210.725C376.857 210.725 381.732 205.2 381.732 189.6L386.282 188.95C391.482 195.45 393.757 202.6 393.757 211.375C393.757 242.9 371.982 255.575 337.532 255.575C297.557 255.575 273.507 233.15 273.507 192.85V112.9H239.707L241.982 96.65C281.632 82.025 319.332 56.675 342.732 27.75L346.632 28.725L345.332 78.45H403.832Z" fill="white"/>
<path d="M241.25 179.525C241.25 228.275 194.775 258.175 137.25 258.175C98.25 258.175 63.15 244.85 42.35 220.475L5.3 258.175H0.75V141.825H5.3C41.375 189.6 82.975 210.725 111.25 210.725C130.1 210.725 139.2 202.925 139.2 192.2C139.2 162.95 5.3 174.325 5.3 79.4249C5.3 36.8499 51.775 0.774902 108.975 0.774902C143.1 0.774902 173 16.0499 187.3 36.1999L217.525 0.774902H222.075V103.8H217.525C188.275 65.7749 154.8 44.9749 125.875 44.9749C107.025 44.9749 97.925 52.7749 97.925 63.4999C97.925 92.7499 241.25 84.6249 241.25 179.525Z" fill="white"/>
</svg>
