<svg width="48" height="48" viewBox="0 0 48 48" fill="none" xmlns="http://www.w3.org/2000/svg">
<path d="M1.50078 42.3079C1.45953 44.5429 3.04578 46.1704 7.15203 46.3317C11.2583 46.4929 39.102 46.4554 41.4608 46.4142C43.8195 46.3729 46.542 45.6417 46.5833 42.4692C46.6245 39.2967 42.3158 38.5654 42.3158 38.5654C42.3158 38.5654 7.68078 38.6067 6.25953 38.6892C4.83828 38.7717 1.54953 39.5029 1.50078 42.3079Z" fill="#B7D118"/>
<path d="M35.4258 39.8998C35.4258 39.8998 44.362 39.9598 44.7933 39.8698C45.2245 39.7761 45.5695 39.2473 45.6295 38.7223C45.5995 36.8361 43.432 36.7161 43.432 36.7161C43.432 36.7161 43.792 35.5198 42.802 34.5298C41.5045 33.1086 39.5958 33.6861 39.5958 33.6861C39.5958 33.6861 39.2883 32.6661 38.3883 32.1073C37.492 31.5523 35.512 31.7061 35.512 31.7061L35.4258 39.8998Z" fill="#5A9821"/>
<path d="M9.69711 34.4922C9.69711 34.4922 8.54586 33.9634 7.60836 34.3459C6.18711 34.9272 6.24711 35.9097 5.86836 36.2884C5.49336 36.6634 3.45336 36.5284 2.90961 38.2872C2.67711 39.0409 2.87961 39.7384 3.51711 39.7384C4.15461 39.7384 8.87961 39.5922 8.87961 39.5922L9.69711 34.4922Z" fill="#5A9821"/>
<path d="M8.88656 33.4502C8.88656 33.4502 8.91656 35.7114 8.88656 36.1764C8.85656 36.6414 8.48156 38.2352 8.18906 38.8127C7.90031 39.3939 7.84031 39.9152 8.24531 40.0014C8.65031 40.0877 11.3166 40.0014 11.3166 40.0014L10.8853 33.4502H8.88656Z" fill="#875B50"/>
<path d="M10.7684 34.0203C7.34845 34.1366 3.6397 31.8378 2.0122 25.5153C0.3847 19.1928 2.13595 11.7416 4.1422 8.54655C6.14845 5.35155 7.8997 3.86655 10.0297 3.92655C12.6434 4.0053 15.3735 7.63155 16.5397 10.6728C17.6722 13.6203 17.6385 16.0841 17.6385 16.0841L11.8147 33.3903L10.7684 34.0203Z" fill="#B7D118"/>
<path d="M24.3027 15.0342L10.5664 28.8342L10.6752 39.7767L20.8827 41.3892L37.8027 40.1254L37.8439 27.7317L24.3027 15.0342Z" fill="#FFF3E1"/>
<path d="M10.0547 39.3528L11.0034 38.8278V28.5303L10.1222 29.119C10.1222 29.119 10.2197 39.3528 10.0547 39.3528Z" fill="#5F4E47"/>
<path d="M37.3281 29.085V38.7637L38.2769 39.2887V29.445L37.3281 29.085Z" fill="#5F4E47"/>
<path d="M24.3973 16.5076L10.1211 29.8689V26.5014L24.4123 12.9639L38.2761 27.3189V30.1651L24.3973 16.5076Z" fill="#BCAA93"/>
<path d="M8.71906 25.9204L7.88281 27.4654L10.1291 27.4316C10.1291 27.4316 24.1353 13.8079 24.4391 13.7929C24.8028 13.7779 38.2691 27.6679 38.2691 27.6679L40.2603 27.6379L25.3203 11.5429L23.1266 11.4004L8.71906 25.9204Z" fill="#AB5832"/>
<path d="M6.13334 27.0821C5.90084 27.3671 6.12959 27.5208 6.32084 27.5208C6.51209 27.5208 8.70584 27.4571 8.70584 27.4571L23.8296 12.7421C23.8296 12.7421 24.1783 12.3858 24.4258 12.3971C24.6958 12.4121 25.0446 12.7496 25.0446 12.7496L40.2396 27.6446C40.2396 27.6446 41.9721 27.6483 42.2496 27.5808C42.5496 27.5058 42.3958 27.2246 42.0283 26.8271C41.7583 26.5346 26.3908 11.3358 26.1396 11.0733C25.3858 10.2933 25.0146 9.83956 24.3021 9.86956C23.5858 9.89956 23.1621 10.4283 22.4458 11.0883C22.2321 11.2908 6.23459 26.9583 6.13334 27.0821Z" fill="#ED6C31"/>
<path d="M33.1875 32.415H36.285V29.835C36.285 29.355 35.895 28.9688 35.4187 28.9688H33.1875V32.415Z" fill="#A6CFD5"/>
<path d="M32.2538 32.415V28.9688H29.835C29.355 28.9688 28.9688 29.3587 28.9688 29.835V32.415H32.2538Z" fill="#A6CFD5"/>
<path d="M32.2538 33.3896H28.9688V35.8084C28.9688 36.2884 29.3587 36.6746 29.835 36.6746H32.2538V33.3896Z" fill="#A6CFD5"/>
<path d="M33.1875 33.3896V36.6746H35.4187C35.8987 36.6746 36.285 36.2846 36.285 35.8084V33.3896H33.1875Z" fill="#A6CFD5"/>
<path d="M17.7188 31.9463H20.8163V29.3662C20.8163 28.8862 20.4263 28.5 19.95 28.5H17.7188V31.9463Z" fill="#A6CFD5"/>
<path d="M16.785 31.9463V28.5H14.3662C13.8862 28.5 13.5 28.89 13.5 29.3662V31.9463H16.785Z" fill="#A6CFD5"/>
<path d="M16.785 32.9209H13.5V35.3396C13.5 35.8196 13.89 36.2059 14.3662 36.2059H16.785V32.9209Z" fill="#A6CFD5"/>
<path d="M17.7188 32.9209V36.2059H19.95C20.43 36.2059 20.8163 35.8159 20.8163 35.3396V32.9209H17.7188Z" fill="#A6CFD5"/>
<path d="M20.1411 40.241C20.1411 40.241 20.0961 32.7635 20.1411 30.8772C20.1861 28.991 21.9598 27.3597 24.0073 27.431C26.5461 27.5172 27.8511 28.946 27.9448 30.7872C28.0386 32.6285 28.0386 40.361 28.0386 40.361L20.1411 40.241Z" fill="#D27857"/>
<path d="M21.0909 40.646C21.0909 40.646 21.0534 32.6772 21.0909 31.2035C21.1359 29.3735 22.5159 28.4135 24.1171 28.5072C25.9809 28.6122 26.9034 29.606 26.9746 31.046C27.0459 32.486 27.0459 40.6535 27.0459 40.6535L21.0909 40.646Z" fill="#AB5932"/>
<path d="M26.0795 34.1509C26.072 32.8384 26.0608 31.6834 26.042 31.3272C25.9933 30.3747 25.3183 29.6322 24.002 29.5872C22.9408 29.5497 22.067 30.3784 22.0408 31.3572C22.0333 31.7172 22.0333 32.8497 22.0408 34.1322L26.0795 34.1509Z" fill="#D27857"/>
<path d="M22.0547 35.6211C22.0659 37.3761 22.0809 38.9923 22.0809 38.9923L26.0897 39.0036C26.0897 39.0036 26.0897 37.3948 26.0822 35.6361L22.0547 35.6211Z" fill="#D27857"/>
<path d="M26.0946 34.8262C26.0796 35.25 26.2521 35.5987 26.7546 35.5987C27.2571 35.5987 27.4446 35.3625 27.4784 34.905C27.5084 34.4962 27.2271 34.1325 26.7546 34.1662C26.2821 34.1962 26.1059 34.5262 26.0946 34.8262Z" fill="#FFBA02"/>
<path d="M18.8555 45.3112L18.8742 42.7012H19.0655L19.0617 39.7949H29.1792L29.1455 42.7012H29.3705V45.2437C29.3705 45.2399 18.8555 45.3262 18.8555 45.3112Z" fill="#B0B0B0"/>
<path d="M29.3741 44.1714V45.2402L18.8516 45.3114L18.8628 44.1602L29.3741 44.1714Z" fill="#9B9B9B"/>
<path d="M19.0625 41.5684L29.1687 41.5759V42.6971L19.0625 42.7009V41.5684Z" fill="#9B9B9B"/>
</svg>
