<svg width="210" height="43" viewBox="0 0 210 43" fill="none" xmlns="http://www.w3.org/2000/svg">
<g clip-path="url(#clip0_201_101)">
<path d="M78.3471 33.4424H73.3156V15.597H66.8086V11.2842H84.8541V15.597H78.3471V33.4424Z" fill="#4E78A2"/>
<path d="M104.972 33.4422H99.9102V11.2842H104.972V33.4422Z" fill="#4E78A2"/>
<path d="M194.283 29.0701H203.036V33.4434H189.223V11.2851H194.283V29.0701Z" fill="#4E78A2"/>
<mask id="mask0_201_101" style="mask-type:luminance" maskUnits="userSpaceOnUse" x="-133" y="-380" width="840" height="1087">
<path d="M-132.684 706.144H706.581V-379.963H-132.684V706.144Z" fill="white"/>
</mask>
<g mask="url(#mask0_201_101)">
<path d="M121.82 11.2793H130.02C136.069 11.2793 142.087 14.4827 142.087 22.298C142.087 29.6649 136.188 33.4375 130.319 33.4375H121.82V11.2793ZM126.731 29.0944H129.87C134.092 29.0944 136.906 26.4601 136.906 22.2679C136.906 18.2855 134.062 15.5922 129.989 15.5922H126.731V29.0944Z" fill="#4E78A2"/>
</g>
<path d="M170.171 33.4424H175.735L166.606 11.2842H161.381L152.164 33.4424H157.577L159.21 29.0705H168.553L170.171 33.4424ZM160.566 25.1334L163.904 16.4679L167.21 25.1334H160.566Z" fill="#4E78A2"/>
<path d="M32.9716 14.5126L26.4865 20.999L20 14.5126L26.4865 8.02883L32.9716 14.5126Z" fill="#4E78A2"/>
<path d="M32.9716 27.4852L26.4865 33.9717L20 27.4852L26.4865 20.9987L32.9716 27.4852Z" fill="#4E78A2"/>
<path d="M19.9989 14.5135L13.5124 21L7.02734 14.5135L13.5124 8.02843L19.9989 14.5135Z" fill="#4E78A2"/>
<path d="M45.9403 14.5135L39.4552 21L32.9688 14.5135L39.4552 8.02843L45.9403 14.5135Z" fill="#4E78A2"/>
</g>
<defs>
<clipPath id="clip0_201_101">
<rect width="198.064" height="28" fill="white" transform="translate(6 7)"/>
</clipPath>
</defs>
</svg>
