<svg width="40" height="40" viewBox="0 0 40 40" fill="none" xmlns="http://www.w3.org/2000/svg">
<path d="M19.9999 6C12.2681 6 6 12.2681 6 20.0001C6 27.7324 12.2681 34 19.9999 34C27.7325 34 34 27.7324 34 20.0001C34 12.2686 27.7325 6.00067 19.9998 6.00067L19.9999 6ZM26.4202 26.1921C26.1694 26.6034 25.6311 26.7338 25.2199 26.4814C21.9328 24.4735 17.7948 24.0188 12.9216 25.1322C12.452 25.2392 11.9839 24.945 11.8769 24.4752C11.7695 24.0054 12.0625 23.5373 12.5333 23.4303C17.8662 22.2114 22.4407 22.7365 26.131 24.9918C26.5422 25.2442 26.6726 25.7809 26.4202 26.1921ZM28.1338 22.3796C27.8178 22.8937 27.1457 23.0558 26.6325 22.7398C22.8693 20.4262 17.133 19.7563 12.6819 21.1075C12.1046 21.2819 11.4949 20.9565 11.3197 20.3803C11.1459 19.803 11.4714 19.1944 12.0476 19.0189C17.132 17.4762 23.4528 18.2234 27.7743 20.8791C28.2876 21.1951 28.4497 21.867 28.1338 22.3796ZM28.2809 18.41C23.7688 15.7299 16.3244 15.4835 12.0164 16.791C11.3246 17.0009 10.593 16.6103 10.3834 15.9185C10.1737 15.2264 10.5639 14.4953 11.2562 14.285C16.2015 12.7837 24.4224 13.0738 29.6173 16.1578C30.2409 16.5271 30.4448 17.3307 30.0753 17.9521C29.7076 18.5744 28.9018 18.7795 28.2815 18.41H28.2809Z" fill="#4E78A2"/>
</svg>
