<svg width="40" height="40" viewBox="0 0 40 40" fill="none" xmlns="http://www.w3.org/2000/svg">
<path d="M31.069 13.5462C30.9066 13.6722 28.0391 15.2879 28.0391 18.8807C28.0391 23.0363 31.6879 24.5065 31.7971 24.5429C31.7803 24.6325 31.2174 26.5563 29.8733 28.5165C28.6748 30.2414 27.423 31.9636 25.5189 31.9636C23.6147 31.9636 23.1246 30.8575 20.9264 30.8575C18.7842 30.8575 18.0225 32 16.2807 32C14.539 32 13.3236 30.4038 11.9263 28.4436C10.3077 26.1418 9 22.5659 9 19.1719C9 13.7282 12.5396 10.8411 16.0231 10.8411C17.8741 10.8411 19.417 12.0564 20.5792 12.0564C21.6853 12.0564 23.4102 10.7683 25.5161 10.7683C26.3141 10.7683 29.1816 10.8411 31.069 13.5462ZM24.5163 8.46365C25.3872 7.43034 26.0033 5.9966 26.0033 4.56286C26.0033 4.36404 25.9865 4.16242 25.9501 4C24.5332 4.05321 22.8474 4.94369 21.8309 6.12261C21.0328 7.0299 20.2879 8.46365 20.2879 9.91699C20.2879 10.1354 20.3243 10.3538 20.3411 10.4238C20.4307 10.4406 20.5764 10.4602 20.722 10.4602C21.9933 10.4602 23.5923 9.60896 24.5163 8.46365Z" fill="#4E78A2"/>
</svg>
