<svg width="90" height="40" viewBox="0 0 90 40" fill="none" xmlns="http://www.w3.org/2000/svg">
<path d="M57.1636 16.7501C53.9091 16.7501 52.2462 19.3579 52.2462 23.2863C52.2462 26.9999 54.0444 29.7873 57.1636 29.7873C60.6911 29.7873 62.0138 26.501 62.0138 23.2863C62.0113 19.9299 60.3492 16.7501 57.1627 16.7501M48.516 7.00044H52.3818V16.4286H52.4503C53.5016 14.6433 55.7056 13.5358 57.6729 13.5358C63.2 13.5358 65.88 17.9658 65.88 23.3593C65.88 28.322 63.5065 33.001 58.3167 33.001C55.943 33.001 53.3994 32.395 52.2457 29.9657H52.1787V32.5027H48.5156V7.00094L48.516 7.00044Z" fill="#4E78A2"/>
<path d="M80.137 20.2158C79.8315 17.9656 78.2718 16.7505 76.1352 16.7505C74.1334 16.7505 71.3191 17.8582 71.3191 23.4657C71.3191 26.5376 72.6073 29.7884 75.9655 29.7884C78.2034 29.7884 79.7628 28.2149 80.137 25.5718H84.0027C83.2902 30.3577 80.4761 33.001 75.9655 33.001C70.4711 33.001 67.4531 28.8944 67.4531 23.4657C67.4531 17.8944 70.3359 13.5369 76.1011 13.5369C80.1705 13.5369 83.6307 15.6796 84.0027 20.2158H80.1431H80.137Z" fill="#4E78A2"/>
<path d="M34.9966 32.4473H6L19.5408 7.00066H48.5378L34.9966 32.4473Z" fill="#4E78A2"/>
</svg>
