<svg width="28" height="28" viewBox="0 0 28 28" fill="none" xmlns="http://www.w3.org/2000/svg">
<g clip-path="url(#clip0_202_103)">
<path d="M14 28.0001C21.732 28.0001 28.0001 21.732 28.0001 14C28.0001 6.26803 21.732 0 14 0C6.26803 0 0 6.26803 0 14C0 21.732 6.26803 28.0001 14 28.0001Z" fill="#FFC10E"/>
<path d="M10.7598 6.49707C9.92485 6.49707 9.14919 6.90425 8.68293 7.58604L8.58674 7.70828L8.5224 7.62627C8.06146 6.91955 7.28443 6.49731 6.44089 6.49731C5.00151 6.49731 3.95703 7.54208 3.95703 8.98098C3.95703 11.1056 7.80357 14.2372 8.08409 14.4627C8.21649 14.5894 8.38983 14.659 8.57375 14.659C8.75766 14.659 8.931 14.5896 9.0634 14.4625C9.3448 14.2352 13.2435 11.0546 13.2435 8.98098C13.2435 7.54185 12.199 6.49707 10.7598 6.49707Z" fill="#ED3533"/>
<path d="M21.6622 6.49707C20.8272 6.49707 20.0515 6.90425 19.5853 7.58604L19.4891 7.70828L19.4247 7.62627C18.9638 6.91955 18.1868 6.49731 17.3432 6.49731C15.9039 6.49731 14.8594 7.54208 14.8594 8.98098C14.8594 11.1056 18.7059 14.2372 18.9864 14.4627C19.1188 14.5894 19.2922 14.659 19.4761 14.659C19.6598 14.659 19.8331 14.5896 19.9657 14.4625C20.247 14.2355 24.1456 11.0546 24.1456 8.98098C24.1459 7.54185 23.1013 6.49707 21.6622 6.49707Z" fill="#ED3533"/>
<path d="M20.281 18.7204C16.7787 22.2845 11.1435 22.2566 7.67039 18.6674C7.17412 18.1545 6.39331 18.9368 6.88894 19.4488C10.7746 23.4645 17.1479 23.4859 21.0625 19.5019C21.5623 18.9934 20.7811 18.2115 20.281 18.7204Z" fill="#333333"/>
</g>
<defs>
<clipPath id="clip0_202_103">
<rect width="28" height="28" fill="white"/>
</clipPath>
</defs>
</svg>
