<svg width="30" height="30" viewBox="0 0 30 30" fill="none" xmlns="http://www.w3.org/2000/svg">
<path fill-rule="evenodd" clip-rule="evenodd" d="M2 5.25C2 4.55964 2.55964 4 3.25 4H25.75C26.4404 4 27 4.55964 27 5.25C27 5.94036 26.4404 6.5 25.75 6.5H3.25C2.55964 6.5 2 5.94036 2 5.25ZM2 15C2 14.3096 2.55964 13.75 3.25 13.75H25.75C26.4404 13.75 27 14.3096 27 15C27 15.6904 26.4404 16.25 25.75 16.25H3.25C2.55964 16.25 2 15.6904 2 15ZM2 24.75C2 24.0596 2.55964 23.5 3.25 23.5H25.75C26.4404 23.5 27 24.0596 27 24.75C27 25.4404 26.4404 26 25.75 26H3.25C2.55964 26 2 25.4404 2 24.75Z" fill="white"/>
</svg>
