<svg width="30" height="30" viewBox="0 0 30 30" fill="none" xmlns="http://www.w3.org/2000/svg">
<path fill-rule="evenodd" clip-rule="evenodd" d="M4.32218 4.32218C4.75176 3.89261 5.44824 3.89261 5.87782 4.32218L15 13.4444L24.1222 4.32218C24.5518 3.89261 25.2482 3.89261 25.6778 4.32218C26.1074 4.75176 26.1074 5.44824 25.6778 5.87782L16.5556 15L25.6778 24.1222C26.1074 24.5518 26.1074 25.2482 25.6778 25.6778C25.2482 26.1074 24.5518 26.1074 24.1222 25.6778L15 16.5556L5.87782 25.6778C5.44824 26.1074 4.75176 26.1074 4.32218 25.6778C3.89261 25.2482 3.89261 24.5518 4.32218 24.1222L13.4444 15L4.32218 5.87782C3.89261 5.44824 3.89261 4.75176 4.32218 4.32218Z" fill="white"/>
</svg>
