<svg width="1281" height="221" viewBox="0 0 1281 221" fill="none" xmlns="http://www.w3.org/2000/svg">
<path d="M1281 135.374H1210.29V151.633H1281V135.374ZM1255.08 136.435H1236.33V218.582H1255.08V136.435ZM1181.81 215.445C1187 212.493 1191.04 208.48 1193.94 203.361C1196.85 198.264 1198.3 192.429 1198.3 185.926V135.374H1179.55V186.871C1179.55 190.169 1178.88 193.029 1177.54 195.473C1176.21 197.918 1174.34 199.763 1171.94 201.008C1169.54 202.254 1166.84 202.899 1163.87 202.899C1160.89 202.899 1158.06 202.277 1155.61 201.008C1153.17 199.74 1151.23 197.895 1149.78 195.473C1148.32 193.029 1147.59 190.123 1147.59 186.756V135.374H1128.95V185.81C1128.95 192.337 1130.43 198.172 1133.38 203.315C1136.33 208.457 1140.41 212.516 1145.65 215.445C1150.88 218.397 1156.95 219.873 1163.87 219.873C1170.79 219.873 1176.6 218.397 1181.79 215.445M1060.16 201.193C1057.14 199.97 1054.51 198.195 1052.32 195.889C1050.13 193.582 1048.42 190.792 1047.24 187.586C1046.07 184.358 1045.47 180.783 1045.47 176.862C1045.47 171.673 1046.48 167.13 1048.54 163.256C1050.59 159.358 1053.47 156.337 1057.21 154.192C1060.94 152.025 1065.28 150.941 1070.24 150.941C1073.86 150.941 1077.2 151.54 1080.25 152.763C1083.31 153.985 1085.94 155.738 1088.13 158.067C1090.32 160.396 1092.03 163.141 1093.21 166.323C1094.38 169.506 1094.98 173.011 1094.98 176.862C1094.98 182.051 1093.94 186.595 1091.87 190.538C1089.79 194.482 1086.89 197.526 1083.2 199.74C1079.51 201.931 1075.17 203.038 1070.24 203.038C1066.55 203.038 1063.18 202.438 1060.16 201.216M1087.69 216.69C1092.95 214.5 1097.57 211.455 1101.49 207.558C1105.41 203.66 1108.47 199.117 1110.69 193.882C1112.88 188.67 1113.99 183.02 1113.99 176.978C1113.99 170.935 1112.9 165.17 1110.73 159.958C1108.57 154.723 1105.5 150.18 1101.49 146.282C1097.47 142.385 1092.81 139.364 1087.51 137.219C1082.21 135.051 1076.44 133.99 1070.24 133.99C1064.03 133.99 1058.13 135.074 1052.8 137.219C1047.45 139.387 1042.82 142.408 1038.9 146.282C1034.98 150.18 1031.91 154.7 1029.69 159.889C1027.5 165.078 1026.4 170.728 1026.4 176.862C1026.4 182.997 1027.5 188.555 1029.69 193.767C1031.88 199.002 1035 203.568 1039.01 207.489C1043.02 211.409 1047.68 214.476 1053.03 216.69C1058.38 218.881 1064.19 219.988 1070.47 219.988C1076.74 219.988 1082.41 218.881 1087.67 216.69M1019.62 218.582L988.736 178.039L971.647 182.743L997.568 218.582H1019.62ZM970.932 135.374H952.321V218.582H970.932V135.374ZM985.784 184.404C991.526 184.404 996.508 183.389 1000.75 181.336C1004.99 179.284 1008.29 176.447 1010.64 172.78C1013 169.137 1014.17 164.778 1014.17 159.75C1014.17 155.046 1013.02 150.825 1010.69 147.136C1008.36 143.446 1005.13 140.563 1000.96 138.464C996.784 136.389 991.918 135.351 986.337 135.351H966.527V149.857H984.216C987.836 149.857 990.65 150.848 992.633 152.809C994.64 154.769 995.631 157.237 995.631 160.235C995.631 163.371 994.617 165.885 992.564 167.707C990.512 169.552 987.698 170.474 984.077 170.474H966.527V184.381H985.738L985.784 184.404ZM939.775 135.374H869.067V151.633H939.775V135.374ZM913.854 136.435H895.104V218.582H913.854V136.435ZM777.557 135.374H758.946V218.582H777.557V135.374ZM832.491 218.582L794.416 171.074V178.615L831.176 135.374H808.184L775.666 175.087L809.268 218.582H832.491ZM688.999 201.193C685.978 199.97 683.349 198.195 681.158 195.889C678.967 193.582 677.261 190.792 676.085 187.586C674.908 184.358 674.309 180.783 674.309 176.862C674.309 171.673 675.324 167.13 677.376 163.256C679.429 159.358 682.311 156.337 686.047 154.192C689.783 152.025 694.119 150.941 699.077 150.941C702.698 150.941 706.019 151.54 709.086 152.763C712.154 153.985 714.783 155.738 716.974 158.067C719.164 160.396 720.871 163.141 722.047 166.323C723.223 169.506 723.823 173.011 723.823 176.862C723.823 182.051 722.785 186.595 720.686 190.538C718.611 194.459 715.728 197.526 712.015 199.74C708.325 201.931 703.99 203.038 699.054 203.038C695.364 203.038 691.997 202.438 688.976 201.216M716.535 216.69C721.793 214.5 726.383 211.455 730.326 207.558C734.247 203.66 737.314 199.117 739.528 193.882C741.719 188.67 742.826 183.02 742.826 176.978C742.826 170.935 741.742 165.17 739.597 159.958C737.429 154.723 734.362 150.18 730.349 146.282C726.337 142.385 721.678 139.364 716.374 137.219C711.07 135.051 705.304 133.99 699.101 133.99C692.897 133.99 686.993 135.074 681.666 137.219C676.315 139.387 671.68 142.408 667.759 146.282C663.839 150.18 660.771 154.7 658.558 159.889C656.367 165.078 655.26 170.728 655.26 176.862C655.26 182.997 656.367 188.555 658.558 193.767C660.748 199.002 663.862 203.568 667.875 207.489C671.887 211.409 676.546 214.476 681.896 216.69C687.247 218.881 693.058 219.988 699.331 219.988C705.604 219.988 711.277 218.881 716.535 216.69ZM590.156 201.193C587.135 199.97 584.506 198.195 582.315 195.889C580.124 193.582 578.417 190.792 577.241 187.586C576.065 184.358 575.465 180.783 575.465 176.862C575.465 171.673 576.48 167.13 578.533 163.256C580.562 159.358 583.468 156.337 587.204 154.192C590.94 152.025 595.276 150.941 600.234 150.941C603.855 150.941 607.199 151.54 610.243 152.763C613.31 153.985 615.939 155.738 618.13 158.067C620.321 160.396 622.027 163.141 623.204 166.323C624.38 169.506 624.979 173.011 624.979 176.862C624.979 182.051 623.941 186.595 621.866 190.538C619.79 194.459 616.908 197.526 613.195 199.74C609.505 201.931 605.169 203.038 600.234 203.038C596.544 203.038 593.177 202.438 590.156 201.216M617.692 216.69C622.95 214.5 627.562 211.455 631.483 207.558C635.403 203.66 638.471 199.117 640.684 193.882C642.875 188.67 643.982 183.02 643.982 176.978C643.982 170.935 642.898 165.17 640.754 159.958C638.586 154.723 635.519 150.18 631.506 146.282C627.493 142.385 622.835 139.364 617.53 137.219C612.226 135.051 606.484 133.99 600.257 133.99C594.03 133.99 588.149 135.074 582.822 137.219C577.472 139.387 572.836 142.408 568.916 146.282C564.995 150.18 561.928 154.7 559.714 159.889C557.523 165.078 556.416 170.728 556.416 176.862C556.416 182.997 557.523 188.555 559.714 193.767C561.905 199.002 565.018 203.568 569.031 207.489C573.044 211.409 577.702 214.476 583.053 216.69C588.403 218.881 594.215 219.988 600.487 219.988C606.76 219.988 612.434 218.881 617.692 216.69ZM549.613 218.582L518.733 178.039L501.644 182.743L527.565 218.582H549.613ZM500.929 135.374H482.318V218.582H500.929V135.374ZM515.781 184.404C521.523 184.404 526.505 183.389 530.748 181.336C534.991 179.284 538.289 176.447 540.642 172.78C542.994 169.137 544.17 164.778 544.17 159.75C544.17 155.046 543.017 150.825 540.688 147.136C538.358 143.446 535.13 140.563 530.956 138.464C526.781 136.389 521.915 135.351 516.334 135.351H496.547V149.857H514.213C517.833 149.857 520.647 150.848 522.63 152.809C524.637 154.769 525.628 157.237 525.628 160.235C525.628 163.371 524.614 165.885 522.561 167.707C520.509 169.552 517.695 170.474 514.074 170.474H496.524V184.381H515.735L515.781 184.404ZM420.005 135.374H401.624V218.582H420.005V135.374ZM437.209 218.582C443.113 218.582 448.14 217.498 452.36 215.353C456.558 213.185 459.786 210.302 462.023 206.682C464.26 203.061 465.391 198.979 465.391 194.413C465.391 188.44 463.499 183.412 459.74 179.33C455.958 175.248 450.539 172.527 443.482 171.189L442.997 177.439C449.432 176.101 454.321 173.68 457.619 170.197C460.917 166.715 462.577 162.31 462.577 157.052C462.577 153.132 461.608 149.511 459.694 146.213C457.78 142.915 454.92 140.286 451.138 138.326C447.379 136.366 442.813 135.374 437.463 135.374H415.899V149.88H433.934C436.909 149.88 439.353 150.641 441.245 152.186C443.136 153.731 444.081 155.968 444.081 158.966C444.081 162.103 443.136 164.432 441.245 165.931C439.353 167.43 436.909 168.168 433.934 168.168H415.899V182.305H435.456C437.808 182.305 439.838 182.766 441.521 183.712C443.205 184.657 444.519 185.949 445.465 187.609C446.41 189.247 446.872 191.115 446.872 193.144C446.872 196.281 445.857 198.91 443.805 200.985C441.752 203.061 438.962 204.099 435.433 204.099H415.876V218.605H437.209V218.582ZM355.731 135.374H310.714V151.402H355.731V135.374ZM352.202 168.26H310.714V183.942H352.202V168.26ZM356.423 202.553H310.691V218.582H356.423V202.553ZM315.073 135.374H296.462V218.582H315.073V135.374ZM262.999 167.776H216.552V183.919H262.999V167.776ZM275.613 135.374H256.864V218.582H275.613V135.374ZM224.001 135.374H205.39V218.582H224.001V135.374ZM192.821 135.374H122.113V151.633H192.821V135.374ZM166.899 136.435H148.15V218.582H166.899V136.435ZM60.1917 218.582H86.2978L68.2865 199.625L69.2319 198.656L79.3562 187.794L67.5254 176.493C64.5504 180.76 60.9296 184.381 56.986 187.886L46.8618 177.231C55.1641 173.08 61.783 167.96 61.783 157.952C61.783 144.207 49.4217 136.112 36.6454 136.112C23.869 136.112 11.7154 144.322 11.7154 158.159C11.7154 164.755 14.921 168.606 17.4809 172.112L19.1874 174.464L17.2734 175.317C7.14919 179.791 0 185.649 0 197.687C0 212.401 11.9461 220.703 25.7833 220.703C35.4693 220.703 45.2706 216.552 53.2731 211.109L60.1917 218.558V218.582ZM37.8215 167.545C35.2617 164.663 31.5488 160.834 31.5488 156.891C31.5488 152.947 34.5237 150.295 38.2597 150.295C42.5262 150.295 45.2936 153.708 45.2936 157.744C45.2936 162.103 41.4654 165.516 37.8446 167.545M41.8805 198.656C38.5826 200.57 34.6391 201.954 30.6955 201.954C26.429 201.954 21.6321 199.394 21.6321 194.597C21.6321 190.123 25.7832 187.148 29.1964 185.003L41.8805 198.633V198.656Z" fill="white"/>
<path d="M364.271 53.1578H319.023V68.2404H364.271V53.1578ZM319.369 83.2076L344.83 14.2523H338.004L362.864 83.2076H382.536L349.88 0H333.022L300.136 83.2076H319.346H319.369ZM303.826 0H233.118V16.2587H303.826V0ZM277.904 1.06083H259.155V83.2076H277.904V1.06083ZM220.641 83.2076V0H201.892V66.5799L206.85 83.2076H220.641ZM211.555 62.8208L162.525 0L157.936 20.3868L206.85 83.2076L211.555 62.8208ZM168.083 83.2076V16.6277L162.548 0.0230493H149.472V83.2306H168.083V83.2076ZM128.578 0H109.967V83.2076H128.578V0ZM22.3544 83.2076V31.2259L19.1719 32.1714L40.3887 65.2884H52.6577L73.8748 32.1714L70.6922 31.2259V83.2076H89.188V0H75.7428L43.0871 51.0361H50.0288L17.2577 0H3.8125V83.2076H22.3082H22.3544Z" fill="white"/>
</svg>
