<svg width="48" height="48" viewBox="0 0 48 48" fill="none" xmlns="http://www.w3.org/2000/svg">
<path d="M7.5 5.25C7.5 6.22967 6.8739 7.06309 6 7.37197V18L9.24112 26.2301L6 34.5C4.35 34.5 3 33.1512 3 31.5027V20.9973C3 19.8938 3.60501 18.9244 4.5 18.4042V7.37197C3.6261 7.06309 3 6.22967 3 5.25C3 4.00736 4.00736 3 5.25 3C6.49264 3 7.5 4.00736 7.5 5.25Z" fill="#F8312F"/>
<path d="M45.0754 5.325C45.0754 6.3466 44.4166 7.21433 43.5006 7.52636V18.2997C44.3956 18.8203 45.0006 19.7906 45.0006 20.8952V31.4101C45.0006 33.0601 43.6506 34.4101 42.0006 34.4101L37.5898 25.8914L42.0006 17.8952V7.5264C41.0845 7.21442 40.4256 6.34666 40.4256 5.325C40.4256 4.04094 41.4664 3 42.7506 3C44.0346 3 45.0754 4.04094 45.0754 5.325Z" fill="#F8312F"/>
<path d="M16.5 6.75C16.5 5.50736 17.5074 4.5 18.75 4.5H29.25C30.4926 4.5 31.5 5.50736 31.5 6.75C31.5 7.76898 30.8226 8.62975 29.8937 8.90661C29.4789 9.03018 29.0392 9.06241 28.6243 9.18532L24.0448 10.5419L19.3662 9.17946C18.9574 9.06042 18.5251 9.02927 18.1165 8.90961C17.1823 8.63604 16.5 7.7727 16.5 6.75Z" fill="#FFB02E"/>
<path d="M33.075 45H14.925C9.99 45 6 41.01 6 36.075V18.045C6 13.05 10.05 9 15.045 9H32.97C37.95 9 42 13.05 42 18.045V36.09C42 41.01 38.01 45 33.075 45Z" fill="#CDC4D6"/>
<path d="M13.8711 27.75H34.1289C37.6233 27.75 40.5 24.8715 40.5 21.375C40.5 17.8635 37.6383 15 34.1289 15H13.8711C10.3617 15 7.5 17.8635 7.5 21.375C7.5 24.8865 10.3617 27.75 13.8711 27.75Z" fill="#212121"/>
<path d="M20.2077 39H27.7923C29.0088 39 30 37.9897 30 36.75C30 35.5103 29.0088 34.5 27.7923 34.5H20.2077C18.9912 34.5 18 35.5103 18 36.75C18 37.9897 18.9912 39 20.2077 39Z" fill="#212121"/>
<path d="M15.375 18C14.3395 18 13.5 18.8394 13.5 19.875V23.625C13.5 24.6606 14.3395 25.5 15.375 25.5C16.4106 25.5 17.25 24.6606 17.25 23.625V19.875C17.25 18.8394 16.4106 18 15.375 18Z" fill="#00A6ED"/>
<path d="M32.625 18C31.5894 18 30.75 18.8394 30.75 19.875V23.625C30.75 24.6606 31.5894 25.5 32.625 25.5C33.6606 25.5 34.5 24.6606 34.5 23.625V19.875C34.5 18.8394 33.6606 18 32.625 18Z" fill="#00A6ED"/>
</svg>
