<?xml version="1.0" standalone="no"?>
<!DOCTYPE svg PUBLIC "-//W3C//DTD SVG 20010904//EN"
 "http://www.w3.org/TR/2001/REC-SVG-20010904/DTD/svg10.dtd">
<svg version="1.0" xmlns="http://www.w3.org/2000/svg"
 width="700.000000pt" height="700.000000pt" viewBox="0 0 700.000000 700.000000"
 preserveAspectRatio="xMidYMid meet">
<metadata>
Created by potrace 1.14, written by Peter Selinger 2001-2017
</metadata>
<g transform="translate(0.000000,700.000000) scale(0.100000,-0.100000)"
fill="#000000" stroke="none">
<path d="M5782 6993 c-8 -3 -224 -216 -480 -474 -1481 -1486 -4807 -4821
-5036 -5049 l-269 -268 89 -85 c534 -505 1190 -855 1909 -1018 188 -43 389
-73 565 -87 129 -10 574 -9 685 1 263 24 473 62 715 127 920 249 1712 796
2266 1565 74 102 191 280 207 315 4 8 18 33 31 55 58 95 199 392 249 520 56
143 108 297 134 395 28 107 62 246 68 280 3 19 8 42 10 50 2 8 6 31 9 50 3 19
10 62 16 95 6 33 13 87 16 120 3 33 7 66 10 74 17 54 26 615 11 771 -9 96 -16
166 -23 210 -2 19 -9 64 -14 100 -5 36 -16 98 -24 137 -9 40 -18 85 -21 100
-3 16 -14 64 -25 108 -12 44 -23 87 -25 96 -2 9 -13 49 -25 90 -108 368 -292
760 -508 1089 -94 142 -296 403 -377 486 -11 11 -43 45 -71 75 -64 68 -76 77
-92 72z"/>
</g>
</svg>
