<svg width="1401" height="258" viewBox="0 0 1401 258" fill="none" xmlns="http://www.w3.org/2000/svg">
<path d="M1400.5 251.225H1280.25V247.325L1292.28 224.9V153.725C1292.28 138.775 1291.3 125.125 1282.53 125.125C1274.08 125.125 1261.08 135.85 1255.55 157.625V224.9L1267.25 247.325V251.225H1147.33V247.325L1173.33 224.9V38.35L1147.33 15.925V11.7L1255.55 6.17505V120.25C1268.55 92.3 1293.9 75.075 1324.13 75.075C1353.05 75.075 1374.18 99.45 1374.18 131.95V224.9L1400.5 247.325V251.225Z" fill="#151313"/>
<path d="M1144.84 131.95C1144.84 153.075 1132.82 166.725 1112.67 166.725C1095.77 166.725 1082.77 159.9 1076.27 148.525L1076.92 143.975C1082.12 144.95 1085.37 140.725 1085.37 135.2C1085.37 125.125 1078.22 116.025 1068.14 116.025C1055.47 116.025 1047.02 133.9 1047.02 165.1C1047.02 204.425 1061.97 214.175 1085.69 214.175C1103.89 214.175 1125.99 201.5 1125.99 182H1140.29C1147.44 219.7 1112.67 254.8 1058.72 254.8C1008.34 254.8 962.516 220.675 962.516 165.1C962.516 109.2 1008.34 75.0752 1058.72 75.0752C1112.02 75.0752 1144.84 104.325 1144.84 131.95Z" fill="#151313"/>
<path d="M958.82 77.6751L941.92 112.125H907.145V195.65C907.145 204.75 912.02 209.95 920.47 209.95C931.845 209.95 936.72 204.425 936.72 188.825L941.27 188.175C946.47 194.675 948.745 201.825 948.745 210.6C948.745 242.125 926.97 254.8 892.52 254.8C852.545 254.8 828.495 232.375 828.495 192.075V112.125H794.695L796.97 95.8751C836.62 81.2501 874.32 55.9001 897.72 26.9751L901.62 27.9501L900.32 77.6751H958.82Z" fill="#151313"/>
<path d="M792.674 141.7C792.674 151.775 790.724 160.55 785.524 169.325H691.274C690.949 172.9 690.624 176.15 690.624 179.075C690.624 208.65 707.849 214.175 729.949 214.175C750.749 214.175 772.524 204.1 772.524 186.225C772.524 185.575 772.524 184.925 772.524 184.275H787.149C789.099 190.125 790.074 195.975 790.074 201.175C790.074 231.4 757.899 254.8 707.524 254.8C645.774 254.8 604.824 220.675 604.824 165.1C604.824 109.2 646.749 75.0752 705.249 75.0752C762.124 75.0752 792.674 105.3 792.674 141.7ZM737.099 137.15C737.099 122.2 729.299 114.4 716.624 114.4C703.299 114.4 693.549 121.55 693.549 146.575H736.124C736.774 143.325 737.099 140.075 737.099 137.15Z" fill="#151313"/>
<path d="M603.977 120.25C603.977 142.025 588.052 159.575 567.902 159.575C549.377 159.575 538.002 155.025 531.502 147.55L531.827 143C535.402 143.325 537.677 139.1 537.677 135.2C537.677 129.025 533.127 123.825 523.702 123.825C514.602 123.825 510.052 128.375 510.052 137.15V224.9L536.052 247.325V251.225H402.152V247.325L428.152 224.9V112.125L402.152 89.3752V85.4752L506.802 77.6752L505.502 112.775C512.652 93.9252 535.077 75.0752 558.477 75.0752C588.052 75.0752 603.977 92.9502 603.977 120.25Z" fill="#151313"/>
<path d="M403.082 77.6751L386.182 112.125H351.407V195.65C351.407 204.75 356.282 209.95 364.732 209.95C376.107 209.95 380.982 204.425 380.982 188.825L385.532 188.175C390.732 194.675 393.007 201.825 393.007 210.6C393.007 242.125 371.232 254.8 336.782 254.8C296.807 254.8 272.757 232.375 272.757 192.075V112.125H238.957L241.232 95.8751C280.882 81.2501 318.582 55.9001 341.982 26.9751L345.882 27.9501L344.582 77.6751H403.082Z" fill="#151313"/>
<path d="M240.5 178.75C240.5 227.5 194.025 257.4 136.5 257.4C97.5 257.4 62.4 244.075 41.6 219.7L4.55 257.4H0V141.05H4.55C40.625 188.825 82.225 209.95 110.5 209.95C129.35 209.95 138.45 202.15 138.45 191.425C138.45 162.175 4.55 173.55 4.55 78.65C4.55 36.075 51.025 0 108.225 0C142.35 0 172.25 15.275 186.55 35.425L216.775 0H221.325V103.025H216.775C187.525 65 154.05 44.2 125.125 44.2C106.275 44.2 97.175 52 97.175 62.725C97.175 91.975 240.5 83.85 240.5 178.75Z" fill="#151313"/>
</svg>
